<?xml version="1.0" encoding="utf-8"?>
<!-- Generator: Adobe Illustrator 19.0.0, SVG Export Plug-In . SVG Version: 6.00 Build 0)  -->
<svg version="1.1" id="Layer_1" xmlns="http://www.w3.org/2000/svg" xmlns:xlink="http://www.w3.org/1999/xlink" x="0px" y="0px"
	 viewBox="-27 -67.5 412.5 412.5" style="enable-background:new -27 -67.5 412.5 412.5;" xml:space="preserve">
<style type="text/css">
	.st0{fill:#D8D8D8;}
	.st1{fill:#202632;}
	.st2{fill:#B0BEC5;}
	.st3{fill:none;stroke:#546E7A;stroke-miterlimit:10;}
	.st4{fill:#00ACC1;}
	.st5{fill:#5E35B1;}
	.st6{fill:#43A047;}
	.st7{fill:#546E7A;}
	.st8{fill:#FFFFFF;}
	.st9{fill:#ECEFF1;}
	.st10{fill:#EF5350;}
</style>
<g>
	<circle id="XMLID_40_" class="st0" cx="179.9" cy="138.8" r="206.2"/>
	<path class="st1" d="M145,277.4c0-0.4,0.2-0.6,0.6-0.6h0.6c0.2,0,0.3,0,0.4,0.1c0.1,0.1,0.1,0.2,0.2,0.5c0,0.7,0.2,1.2,0.5,1.6
		c0.3,0.4,0.8,0.6,1.4,0.6c0.3,0,0.5,0,0.7-0.1c0.2-0.1,0.4-0.2,0.6-0.4s0.3-0.4,0.5-0.7c0.1-0.3,0.2-0.6,0.2-1v-7.5h-2.6
		c-0.4,0-0.6-0.2-0.6-0.6v-0.4c0-0.4,0.2-0.6,0.6-0.6h3.8c0.4,0,0.6,0.2,0.6,0.6v8.5c0,0.5-0.1,1-0.2,1.5c-0.1,0.4-0.3,0.8-0.6,1.1
		c-0.2,0.3-0.5,0.5-0.8,0.7c-0.3,0.2-0.7,0.3-1,0.4c-0.4,0.1-0.7,0.1-1.1,0.1c-0.5,0-0.9-0.1-1.4-0.2c-0.4-0.2-0.8-0.4-1.2-0.7
		c-0.4-0.3-0.7-0.7-0.9-1.2C145.1,278.6,145,278,145,277.4z"/>
	<path class="st1" d="M154.5,278.5c0-0.4,0.1-0.7,0.2-1.1c0.1-0.4,0.3-0.6,0.5-0.8c0.2-0.2,0.5-0.4,0.8-0.6c0.3-0.2,0.6-0.3,0.9-0.4
		s0.7-0.2,1-0.2c0.3,0,0.7-0.1,1-0.1c0.3,0,0.6,0,0.9,0h0.5v-0.2c0-1.3-0.7-2-2-2c-0.7,0-1.4,0.2-2.1,0.6c-0.1,0.1-0.2,0.1-0.3,0.1
		c-0.2,0-0.4-0.1-0.5-0.3l-0.1-0.3c-0.1-0.1-0.1-0.3-0.1-0.4c0-0.2,0.1-0.3,0.3-0.4c0.9-0.5,1.9-0.8,3-0.8s2,0.3,2.6,0.9
		s0.9,1.5,0.9,2.6v5.2c0,0.4-0.2,0.6-0.6,0.6h-0.4c-0.4,0-0.6-0.2-0.6-0.6v-0.5c0-0.1,0-0.2,0-0.3c0-0.1,0-0.2,0-0.2v-0.1l0,0
		c0,0.1-0.1,0.1-0.1,0.2s-0.2,0.2-0.3,0.5c-0.2,0.2-0.4,0.4-0.6,0.6c-0.2,0.2-0.5,0.3-0.8,0.5c-0.4,0.1-0.7,0.2-1.1,0.2
		c-0.8,0-1.6-0.2-2.2-0.7C154.6,280.1,154.5,279.4,154.5,278.5z M156.1,278.4c0,0.4,0.2,0.7,0.5,1c0.3,0.3,0.7,0.4,1.2,0.4
		s0.9-0.2,1.3-0.5s0.7-0.7,0.9-1.1c0.2-0.4,0.3-0.9,0.3-1.4v-0.4h-0.5C157.5,276.5,156.1,277.1,156.1,278.4z"/>
	<path class="st1" d="M164.5,280.4v-7.9c0-0.4,0.2-0.6,0.6-0.6h0.5c0.4,0,0.6,0.2,0.6,0.6v1l-0.1,0.7l0,0c0.2-0.7,0.6-1.2,1.1-1.7
		s1.1-0.7,1.7-0.7c0.4,0,0.6,0.2,0.6,0.6v0.5c0,0.4-0.2,0.6-0.7,0.6c-0.4,0-0.8,0.1-1.2,0.3s-0.6,0.5-0.8,0.9
		c-0.2,0.4-0.4,0.8-0.5,1.2s-0.2,0.9-0.2,1.3v3.2c0,0.4-0.2,0.6-0.6,0.6h-0.6C164.6,281,164.5,280.9,164.5,280.4z"/>
	<path class="st1" d="M170.9,269.5v-0.6c0-0.4,0.2-0.6,0.6-0.6h0.6c0.4,0,0.6,0.2,0.6,0.6v0.6c0,0.2-0.1,0.3-0.2,0.4
		c-0.1,0.1-0.3,0.2-0.4,0.2h-0.6C171,270.1,170.9,269.9,170.9,269.5z M170.9,280.4v-7.9c0-0.4,0.2-0.6,0.6-0.6h0.6
		c0.4,0,0.6,0.2,0.6,0.6v7.9c0,0.4-0.2,0.6-0.6,0.6h-0.6C171,281,170.9,280.9,170.9,280.4z"/>
	<path class="st1" d="M175.1,280.4v-7.9c0-0.4,0.2-0.6,0.6-0.6h0.5c0.4,0,0.6,0.2,0.6,0.6v0.8l-0.1,0.5l0,0c0.1-0.2,0.2-0.4,0.4-0.7
		c0.2-0.2,0.4-0.5,0.7-0.7c0.3-0.2,0.6-0.4,1-0.6c0.4-0.1,0.8-0.2,1.3-0.2c1.1,0,1.8,0.3,2.3,0.9s0.8,1.5,0.8,2.6v5.2
		c0,0.4-0.2,0.6-0.6,0.6H182c-0.4,0-0.6-0.2-0.6-0.6v-4.7c0-0.4,0-0.7-0.1-0.9s-0.1-0.5-0.2-0.7c-0.1-0.2-0.3-0.4-0.5-0.5
		c-0.2-0.1-0.5-0.2-0.9-0.2c-0.9,0-1.6,0.3-2.2,1c-0.6,0.7-0.9,1.4-0.9,2.4v3.8c0,0.4-0.2,0.6-0.6,0.6h-0.6
		C175.4,281,175.1,280.9,175.1,280.4z"/>
	<path class="st1" d="M185.3,276.3c0-1.3,0.4-2.4,1.1-3.3s1.7-1.3,3-1.3c0.4,0,0.8,0.1,1.2,0.2c0.3,0.1,0.6,0.2,0.8,0.4
		c0.2,0.2,0.4,0.3,0.5,0.4s0.2,0.3,0.3,0.4l0.1,0.2l0,0c0-0.1,0-0.2,0-0.3v-0.5c0-0.3,0.2-0.5,0.6-0.5h0.4c0.4,0,0.6,0.2,0.6,0.6
		v8.1c0,0.6-0.1,1.1-0.3,1.6c-0.2,0.5-0.4,0.9-0.7,1.2c-0.3,0.3-0.6,0.6-1,0.8c-0.4,0.2-0.8,0.4-1.2,0.5s-0.9,0.1-1.3,0.1
		c-1,0-1.9-0.2-2.6-0.5c-0.3-0.1-0.4-0.3-0.4-0.5c0-0.1,0-0.2,0.1-0.3l0.1-0.3c0.1-0.2,0.3-0.4,0.5-0.4c0.1,0,0.2,0,0.3,0.1
		c0.7,0.3,1.4,0.4,2,0.4c0.4,0,0.8,0,1.1-0.1c0.3-0.1,0.6-0.2,0.9-0.4c0.3-0.2,0.5-0.5,0.6-0.8c0.2-0.3,0.2-0.7,0.2-1.2v-0.8
		l0.1-0.6l0,0c-0.6,1-1.5,1.5-2.7,1.5c-0.8,0-1.6-0.2-2.2-0.6c-0.6-0.4-1.1-1-1.4-1.7S185.3,277.1,185.3,276.3z M187,276.1
		c0,1,0.2,1.8,0.7,2.4s1.1,0.9,1.9,0.9c0.3,0,0.6-0.1,0.9-0.2s0.5-0.3,0.8-0.5c0.2-0.2,0.4-0.6,0.5-1s0.2-0.9,0.2-1.5
		c0-2.1-0.8-3.1-2.5-3.1c-0.8,0-1.4,0.3-1.9,0.8S187,275.3,187,276.1z"/>
	<path class="st1" d="M195.5,278.5c0-0.4,0.1-0.7,0.2-1.1c0.1-0.4,0.3-0.6,0.5-0.8c0.2-0.2,0.5-0.4,0.8-0.6c0.3-0.2,0.6-0.3,0.9-0.4
		s0.7-0.2,1-0.2c0.3,0,0.7-0.1,1-0.1c0.3,0,0.6,0,0.9,0h0.5v-0.2c0-1.3-0.7-2-2-2c-0.7,0-1.4,0.2-2.1,0.6c-0.1,0.1-0.2,0.1-0.3,0.1
		c-0.2,0-0.4-0.1-0.5-0.3l-0.1-0.3c-0.1-0.1-0.1-0.3-0.1-0.4c0-0.2,0.1-0.3,0.3-0.4c0.9-0.5,1.9-0.8,3-0.8s2,0.3,2.6,0.9
		s0.9,1.5,0.9,2.6v5.2c0,0.4-0.2,0.6-0.6,0.6H202c-0.4,0-0.6-0.2-0.6-0.6v-0.5c0-0.1,0-0.2,0-0.3c0-0.1,0-0.2,0-0.2v-0.1l0,0
		c0,0.1-0.1,0.1-0.1,0.2s-0.2,0.2-0.3,0.5c-0.2,0.2-0.4,0.4-0.6,0.6s-0.5,0.3-0.8,0.5c-0.4,0.1-0.7,0.2-1.1,0.2
		c-0.8,0-1.6-0.2-2.2-0.7C195.7,280.1,195.5,279.4,195.5,278.5z M197.4,278.4c0,0.4,0.2,0.7,0.5,1c0.3,0.3,0.7,0.4,1.2,0.4
		s0.9-0.2,1.3-0.5c0.4-0.3,0.7-0.7,0.9-1.1c0.2-0.4,0.3-0.9,0.3-1.4v-0.4H201C198.5,276.5,197.4,277.1,197.4,278.4z"/>
	<path class="st1" d="M205.6,280.4v-7.9c0-0.4,0.2-0.6,0.6-0.6h0.5c0.4,0,0.6,0.2,0.6,0.6v0.8l-0.1,0.5l0,0c0.1-0.2,0.2-0.4,0.4-0.7
		c0.2-0.2,0.4-0.5,0.7-0.7c0.3-0.2,0.6-0.4,1-0.6s0.8-0.2,1.3-0.2c1.1,0,1.8,0.3,2.3,0.9s0.8,1.5,0.8,2.6v5.2c0,0.4-0.2,0.6-0.6,0.6
		h-0.6c-0.4,0-0.6-0.2-0.6-0.6v-4.7c0-0.4,0-0.7-0.1-0.9s-0.1-0.5-0.2-0.7c-0.1-0.2-0.3-0.4-0.5-0.5c-0.2-0.1-0.5-0.2-0.9-0.2
		c-0.9,0-1.6,0.3-2.2,1c-0.6,0.7-0.9,1.4-0.9,2.4v3.8c0,0.4-0.2,0.6-0.6,0.6h-0.6C205.9,281,205.6,280.9,205.6,280.4z"/>
	<path class="st1" d="M140.4,303.9v-11.5c0-0.4,0.2-0.6,0.6-0.6h0.6c0.4,0,0.6,0.2,0.6,0.6v4.7h1.9l3-4.9c0.1-0.3,0.4-0.4,0.7-0.4
		h0.7c0.2,0,0.4,0.1,0.5,0.2s0.1,0.3-0.1,0.5l-3.3,5.3l0,0l3.5,6c0.1,0.1,0.1,0.2,0.1,0.3c0,0.1,0,0.1,0,0.2
		c-0.1,0.1-0.2,0.2-0.5,0.2h-0.8c-0.3,0-0.5-0.1-0.7-0.4l-3.2-5.4h-1.9v5.2c0,0.4-0.2,0.6-0.6,0.6h-0.6
		C140.5,304.5,140.4,304.4,140.4,303.9z"/>
	<path class="st1" d="M150,299.9c0-1.4,0.4-2.6,1.3-3.5c0.9-0.9,1.9-1.3,3.3-1.3c1.2,0,2.2,0.4,2.9,1.2c0.7,0.8,1,1.8,1,3.1
		c0,0.2-0.1,0.3-0.2,0.4c-0.1,0.1-0.3,0.2-0.4,0.2h-6.1c0.1,1,0.4,1.7,1,2.3c0.6,0.6,1.3,0.8,2.2,0.8c0.8,0,1.5-0.2,2.2-0.7
		c0.1-0.1,0.3-0.1,0.4-0.1c0.2,0,0.3,0.1,0.4,0.3l0.2,0.3c0.1,0.2,0.1,0.3,0.1,0.4s-0.1,0.3-0.3,0.3c-0.9,0.7-1.9,1-3.1,1
		c-0.9,0-1.8-0.2-2.5-0.6c-0.7-0.4-1.3-1-1.7-1.7C150.3,301.8,150,300.9,150,299.9z M151.9,299h4.9c0-0.8-0.2-1.4-0.7-1.8
		c-0.4-0.4-0.9-0.6-1.6-0.6c-0.7,0-1.3,0.2-1.8,0.6C152.4,297.6,152,298.3,151.9,299z"/>
	<path class="st1" d="M160.5,303.9V296c0-0.4,0.2-0.6,0.6-0.6h0.5c0.4,0,0.6,0.2,0.6,0.6v1l-0.1,0.7l0,0c0.2-0.7,0.6-1.2,1.1-1.7
		s1.1-0.7,1.7-0.7c0.4,0,0.6,0.2,0.6,0.6v0.5c0,0.4-0.2,0.6-0.7,0.6c-0.4,0-0.8,0.1-1.2,0.3s-0.6,0.5-0.8,0.9
		c-0.2,0.4-0.4,0.8-0.5,1.2s-0.2,0.9-0.2,1.3v3.2c0,0.4-0.2,0.6-0.6,0.6h-0.6C160.6,304.5,160.5,304.4,160.5,303.9z"/>
	<path class="st1" d="M164.5,307.4c0-0.2,0.1-0.4,0.2-0.4c0.1-0.1,0.3-0.1,0.4-0.2c0.1,0,0.3,0,0.4,0c0.1,0,0.2-0.1,0.4-0.1
		c0.2,0,0.3-0.1,0.4-0.2c0.1-0.1,0.2-0.2,0.3-0.3c0.1-0.1,0.2-0.3,0.2-0.5s0.1-0.5,0.1-0.7v-8.7c0-0.4,0.2-0.6,0.6-0.6h0.6
		c0.4,0,0.6,0.2,0.6,0.6v8.8c0,0.6-0.1,1.1-0.3,1.5c-0.2,0.4-0.4,0.8-0.6,1s-0.5,0.4-0.9,0.6c-0.3,0.1-0.6,0.2-0.8,0.3
		c-0.2,0-0.5,0.1-0.7,0.1h-0.2c-0.4,0-0.6-0.2-0.6-0.6L164.5,307.4L164.5,307.4z M166.9,293v-0.6c0-0.4,0.2-0.6,0.6-0.6h0.6
		c0.4,0,0.6,0.2,0.6,0.6v0.6c0,0.4-0.2,0.6-0.6,0.6h-0.6c-0.2,0-0.3-0.1-0.4-0.2C167,293.3,166.9,293.3,166.9,293z"/>
	<path class="st1" d="M170.4,302c0-0.4,0.1-0.7,0.2-1.1c0.1-0.4,0.3-0.6,0.5-0.8c0.2-0.2,0.5-0.4,0.8-0.6c0.3-0.2,0.6-0.3,0.9-0.4
		s0.7-0.2,1-0.2c0.3,0,0.7-0.1,1-0.1c0.3,0,0.6,0,0.9,0h0.5v-0.2c0-1.3-0.7-2-2-2c-0.7,0-1.4,0.2-2.1,0.6c-0.1,0.1-0.2,0.1-0.3,0.1
		c-0.2,0-0.4-0.1-0.5-0.3l-0.1-0.3c-0.1-0.1-0.1-0.3-0.1-0.4c0-0.2,0.1-0.3,0.3-0.4c0.9-0.5,1.9-0.8,3-0.8s2,0.3,2.6,0.9
		s0.9,1.5,0.9,2.6v5.2c0,0.4-0.2,0.6-0.6,0.6h-0.4c-0.4,0-0.6-0.2-0.6-0.6v-0.5c0-0.1,0-0.2,0-0.3c0-0.1,0-0.2,0-0.2v-0.1l0,0
		c0,0.1-0.1,0.1-0.1,0.2s-0.2,0.2-0.3,0.5c-0.2,0.2-0.4,0.4-0.6,0.6c-0.2,0.2-0.5,0.3-0.8,0.5c-0.4,0.1-0.7,0.2-1.1,0.2
		c-0.8,0-1.6-0.2-2.2-0.7C170.5,303.6,170.4,302.9,170.4,302z M172.1,301.9c0,0.4,0.2,0.7,0.5,1c0.3,0.3,0.7,0.4,1.2,0.4
		s0.9-0.2,1.3-0.5s0.7-0.7,0.9-1.1c0.2-0.4,0.3-0.9,0.3-1.4v-0.4h-0.5C173.4,300,172.1,300.6,172.1,301.9z"/>
	<path class="st1" d="M184.9,303.9l0.9-11.5c0-0.4,0.2-0.6,0.6-0.6h0.8c0.3,0,0.6,0.2,0.7,0.5l2.8,6.4c0.1,0.2,0.2,0.5,0.3,0.7
		c0.1,0.3,0.2,0.5,0.3,0.7l0.1,0.3l0,0c0.2-0.7,0.4-1.2,0.6-1.7l2.8-6.4c0.1-0.3,0.3-0.5,0.7-0.5h0.8c0.4,0,0.6,0.2,0.6,0.6
		l0.9,11.5c0,0,0,0,0,0.1c0,0.4-0.2,0.6-0.6,0.6h-0.6c-0.4,0-0.6-0.2-0.6-0.6l-0.6-7.4c0-0.2,0-0.5,0-0.8c0-0.2,0-0.3,0-0.4
		s0-0.2,0-0.3v-0.3l0,0c-0.3,0.8-0.5,1.4-0.7,1.9l-2.3,5.3c-0.1,0.3-0.3,0.5-0.7,0.5H191c-0.3,0-0.6-0.2-0.7-0.5l-2.3-5.3l-0.7-1.9
		l0,0c0,0.2,0,0.4,0,0.6c0,0.5,0,0.9-0.1,1.3l-0.6,7.4c0,0.4-0.2,0.6-0.6,0.6h-0.6C185,304.5,184.9,304.4,184.9,303.9L184.9,303.9z"
		/>
	<path class="st1" d="M199.6,298.1c0-1.2,0.3-2.3,0.8-3.3s1.3-1.8,2.3-2.3c1-0.6,2.1-0.9,3.3-0.9c1.6,0,3,0.4,4.2,1.3
		c0.2,0.1,0.2,0.3,0.2,0.4s0,0.3-0.1,0.4l-0.2,0.4c-0.1,0.2-0.3,0.3-0.4,0.3s-0.2,0-0.4-0.1c-1-0.7-2.1-1-3.2-1
		c-0.7,0-1.4,0.1-2,0.4s-1.1,0.6-1.5,1s-0.7,1-0.9,1.5c-0.2,0.6-0.3,1.2-0.3,1.9c0,0.7,0.1,1.3,0.3,1.9c0.2,0.6,0.5,1.1,0.9,1.6
		s0.9,0.8,1.5,1.1c0.6,0.3,1.3,0.4,2,0.4c1.2,0,2.4-0.4,3.5-1.2c0.1-0.1,0.3-0.2,0.4-0.2c0.2,0,0.3,0.1,0.4,0.2l0.3,0.4
		c0.1,0.1,0.1,0.3,0.1,0.4c0,0.2-0.1,0.3-0.2,0.4c-1.3,1.1-2.8,1.6-4.5,1.6c-1.3,0-2.4-0.3-3.4-0.9s-1.8-1.4-2.3-2.4
		C200,300.4,199.6,299.4,199.6,298.1z"/>
	<path class="st1" d="M213.1,303.9v-11.5c0-0.4,0.2-0.6,0.6-0.6h5.8c0.4,0,0.6,0.2,0.6,0.6v0.4c0,0.2-0.1,0.3-0.2,0.4
		s-0.3,0.2-0.4,0.2H215v4.2h3.8c0.4,0,0.6,0.2,0.6,0.6v0.4c0,0.4-0.2,0.6-0.6,0.6H215v4.8c0,0.4-0.2,0.6-0.6,0.6h-0.6
		C213.4,304.5,213.1,304.4,213.1,303.9z"/>
	<circle id="XMLID_35_" class="st2" cx="179.9" cy="69.3" r="99.7"/>
	<line id="XMLID_34_" class="st3" x1="179.9" y1="138.8" x2="88.4" y2="230.3"/>
	<line id="XMLID_30_" class="st3" x1="179.9" y1="138.8" x2="39.1" y2="161"/>
	<line id="XMLID_26_" class="st3" x1="179.9" y1="138.8" x2="271.4" y2="230.3"/>
	<line id="XMLID_24_" class="st3" x1="179.9" y1="138.8" x2="320.6" y2="161"/>
	<circle id="XMLID_15_" class="st4" cx="90.8" cy="232.7" r="32.2"/>
	<circle id="XMLID_14_" class="st5" cx="324.1" cy="161" r="32.2"/>
	<circle id="XMLID_13_" class="st6" cx="272.5" cy="232.7" r="32.2"/>
	<ellipse id="XMLID_12_" class="st7" cx="179.9" cy="16.4" rx="62.6" ry="37.3"/>
	<path class="st8" d="M78.9,239.4v-15.1c0-0.5,0.3-0.8,0.8-0.8h5.1c1.4,0,2.6,0.4,3.5,1.1c0.9,0.8,1.3,1.8,1.3,3.1
		c0,0.8-0.2,1.5-0.5,2.2c-0.4,0.6-0.9,1.1-1.5,1.4v0c0.9,0.3,1.5,0.8,2,1.5s0.7,1.6,0.7,2.5c0,0.8-0.1,1.4-0.4,2.1s-0.7,1.1-1.2,1.5
		c-0.5,0.4-1.1,0.7-1.7,0.9c-0.6,0.2-1.3,0.3-2.1,0.3h-5.2C79.1,240.2,78.9,239.9,78.9,239.4z M81.2,230.5h3.5
		c0.7,0,1.3-0.2,1.8-0.7s0.7-1.1,0.7-1.8s-0.2-1.3-0.7-1.8c-0.4-0.4-1.1-0.7-1.8-0.7h-3.5V230.5z M81.2,238.2H85
		c0.9,0,1.6-0.3,2.1-0.8c0.5-0.5,0.8-1.2,0.8-2.1s-0.3-1.5-0.8-2.1c-0.5-0.5-1.2-0.8-2.1-0.8h-3.8V238.2z"/>
	<path class="st8" d="M92.5,239.4v-0.5c0-0.6,0.1-1.2,0.3-1.8c0.2-0.6,0.4-1.1,0.7-1.5c0.3-0.4,0.7-0.8,1.1-1.2
		c0.4-0.4,0.8-0.8,1.3-1.1s0.9-0.7,1.3-1c0.4-0.3,0.9-0.6,1.3-0.9c0.4-0.3,0.8-0.6,1.1-0.9c0.3-0.3,0.6-0.7,0.8-1.1
		c0.2-0.4,0.3-0.8,0.3-1.2c0-0.8-0.3-1.5-0.8-2c-0.6-0.5-1.3-0.8-2.2-0.8c-1.1,0-2.1,0.5-2.9,1.5c-0.4,0.4-0.7,0.5-1,0.2l-0.4-0.3
		c-0.4-0.3-0.5-0.7-0.2-1.1c0.2-0.3,0.4-0.5,0.7-0.8c0.2-0.3,0.6-0.5,1-0.8s0.9-0.5,1.4-0.7c0.5-0.2,1.1-0.3,1.7-0.3
		c1.5,0,2.8,0.4,3.8,1.3s1.5,2,1.5,3.5c0,0.6-0.1,1.1-0.3,1.7c-0.2,0.5-0.4,1-0.7,1.4c-0.3,0.4-0.7,0.8-1.1,1.2
		c-0.4,0.4-0.8,0.7-1.3,1s-0.9,0.6-1.3,0.9c-0.4,0.3-0.9,0.6-1.3,0.9c-0.4,0.3-0.8,0.6-1.1,0.9c-0.3,0.3-0.6,0.6-0.8,1
		c-0.2,0.4-0.3,0.8-0.3,1.2h7.6c0.5,0,0.8,0.3,0.8,0.8v0.5c0,0.5-0.3,0.8-0.8,0.8h-9.2c-0.2,0-0.4-0.1-0.6-0.2
		C92.5,239.9,92.5,239.7,92.5,239.4z"/>
	<path class="st8" d="M260.7,239.4v-15.1c0-0.5,0.3-0.8,0.8-0.8h5.1c1.4,0,2.6,0.4,3.5,1.1c0.9,0.8,1.3,1.8,1.3,3.1
		c0,0.8-0.2,1.5-0.5,2.2c-0.4,0.6-0.9,1.1-1.5,1.4v0c0.9,0.3,1.5,0.8,2,1.5s0.7,1.6,0.7,2.5c0,0.8-0.1,1.4-0.4,2.1s-0.7,1.1-1.2,1.5
		c-0.5,0.4-1.1,0.7-1.7,0.9s-1.3,0.3-2.1,0.3h-5.2C260.9,240.2,260.7,239.9,260.7,239.4z M263,230.5h3.5c0.7,0,1.3-0.2,1.8-0.7
		c0.4-0.5,0.7-1.1,0.7-1.8s-0.2-1.3-0.7-1.8c-0.4-0.4-1.1-0.7-1.8-0.7H263V230.5z M263,238.2h3.8c0.9,0,1.6-0.3,2.1-0.8
		c0.5-0.5,0.8-1.2,0.8-2.1s-0.3-1.5-0.8-2.1c-0.5-0.5-1.2-0.8-2.1-0.8H263V238.2z"/>
	<path class="st8" d="M274.3,237.6l0.4-0.5c0.3-0.4,0.7-0.4,1.1-0.1c1.1,0.9,2.2,1.3,3.4,1.3c1,0,1.8-0.3,2.4-0.9s1-1.3,1-2.2
		c0-1-0.4-1.7-1.1-2.3c-0.7-0.5-1.7-0.8-2.8-0.8h-0.5c-0.4,0-0.7-0.2-0.9-0.6l-0.1-0.1c-0.2-0.4-0.1-0.7,0.2-1l3.2-3.8
		c0.2-0.2,0.3-0.4,0.5-0.5c0.2-0.2,0.3-0.3,0.4-0.4l0.1-0.1v0c-0.3,0-0.8,0.1-1.4,0.1h-4.9c-0.2,0-0.4-0.1-0.6-0.2
		c-0.1-0.1-0.2-0.3-0.2-0.6v-0.5c0-0.5,0.3-0.8,0.8-0.8h8.4c0.5,0,0.8,0.2,0.8,0.7v0.2c0,0.4-0.1,0.7-0.3,0.9l-4.2,4.8
		c0.5,0,0.9,0.1,1.4,0.3c0.4,0.1,0.9,0.3,1.3,0.6s0.8,0.6,1.1,0.9c0.3,0.4,0.6,0.8,0.8,1.3s0.3,1.1,0.3,1.7c0,0.7-0.1,1.4-0.4,2
		c-0.3,0.6-0.7,1.2-1.1,1.7c-0.5,0.5-1.1,0.9-1.8,1.2c-0.7,0.3-1.5,0.4-2.3,0.4c-1.7,0-3.3-0.6-4.9-1.8
		C274,238.4,274,238,274.3,237.6z"/>
	<path class="st8" d="M312,166.4v-15.1c0-0.5,0.3-0.8,0.8-0.8h5.1c1.4,0,2.6,0.4,3.5,1.1s1.3,1.8,1.3,3.1c0,0.8-0.2,1.5-0.5,2.2
		c-0.4,0.6-0.9,1.1-1.5,1.4v0c0.8,0.3,1.5,0.8,2,1.5s0.7,1.6,0.7,2.5c0,0.8-0.1,1.4-0.4,2.1s-0.7,1.1-1.2,1.5
		c-0.5,0.4-1.1,0.7-1.7,0.9c-0.6,0.2-1.3,0.3-2.1,0.3h-5.2C312.2,167.2,312,166.9,312,166.4z M314.3,157.5h3.5
		c0.7,0,1.3-0.2,1.8-0.7c0.4-0.5,0.7-1.1,0.7-1.8s-0.2-1.3-0.7-1.8c-0.4-0.4-1.1-0.7-1.8-0.7h-3.5V157.5z M314.3,165.1h3.8
		c0.9,0,1.6-0.3,2.1-0.8c0.5-0.5,0.8-1.2,0.8-2.1s-0.3-1.5-0.8-2.1s-1.2-0.8-2.1-0.8h-3.8V165.1z"/>
	<path class="st8" d="M325,161.9v-0.1c0-0.3,0.1-0.7,0.3-1l7.1-9.8c0.2-0.3,0.5-0.5,0.9-0.5h1.3c0.5,0,0.8,0.3,0.8,0.8v9.4h1.5
		c0.2,0,0.4,0.1,0.6,0.2c0.1,0.1,0.2,0.3,0.2,0.6v0.4c0,0.5-0.2,0.8-0.7,0.8h-1.6v3.7c0,0.5-0.3,0.8-0.8,0.8h-0.8
		c-0.5,0-0.8-0.3-0.8-0.8v-3.7h-7.3C325.2,162.7,325,162.4,325,161.9z M327.5,160.7h5.5v-6.1c0-0.2,0-0.5,0-0.8c0-0.3,0-0.5,0.1-0.7
		l0-0.2h0c-0.3,0.5-0.5,1-0.8,1.4L327.5,160.7L327.5,160.7z"/>
	<path class="st1" d="M118.3,100.6v-0.5c0-0.5,0.3-0.8,0.8-0.8h12.6c0.5,0,0.8,0.3,0.8,0.8v0.5c0,0.5-0.3,0.8-0.8,0.8h-5.1v14.3
		c0,0.5-0.3,0.8-0.8,0.8h-0.8c-0.5,0-0.8-0.3-0.8-0.8v-14.3h-5.1C118.7,101.3,118.3,101.1,118.3,100.6z"/>
	<path class="st1" d="M134.1,100.8V100c0-0.5,0.3-0.8,0.8-0.8h0.8c0.5,0,0.8,0.3,0.8,0.8v0.8c0,0.3-0.1,0.5-0.2,0.6
		s-0.3,0.2-0.6,0.2H135C134.5,101.7,134.1,101.3,134.1,100.8z M134.3,115.6v-10.7c0-0.5,0.3-0.8,0.8-0.8h0.8c0.5,0,0.8,0.3,0.8,0.8
		v10.7c0,0.5-0.3,0.8-0.8,0.8H135C134.5,116.5,134.3,116.2,134.3,115.6z"/>
	<path class="st1" d="M140,115.6v-10.7c0-0.5,0.3-0.8,0.8-0.8h0.7c0.5,0,0.8,0.3,0.8,0.8v1.1l-0.1,0.7l0,0c0.3-0.8,0.9-1.5,1.7-2
		c0.8-0.6,1.7-0.9,2.6-0.9c2,0,3.3,0.9,3.7,2.8l0,0c0.3-0.8,0.9-1.4,1.7-2c0.8-0.6,1.7-0.8,2.6-0.8c1.4,0,2.4,0.4,3.1,1.2
		c0.7,0.8,1,2,1,3.5v7.1c0,0.5-0.3,0.8-0.8,0.8H157c-0.5,0-0.8-0.3-0.8-0.8v-6.6c0-0.5,0-0.9-0.1-1.2s-0.2-0.7-0.3-1
		s-0.4-0.5-0.7-0.7c-0.3-0.2-0.7-0.2-1.1-0.2c-0.7,0-1.4,0.2-2,0.7s-1,1-1.3,1.8c-0.3,0.7-0.4,1.5-0.4,2.3v4.9
		c0,0.5-0.3,0.8-0.8,0.8h-0.8c-0.5,0-0.8-0.3-0.8-0.8V109c0-0.5,0-0.8-0.1-1.2c0-0.3-0.1-0.6-0.3-1c-0.1-0.3-0.4-0.5-0.7-0.7
		c-0.3-0.2-0.7-0.2-1.1-0.2c-0.7,0-1.4,0.2-2,0.7s-1,1.1-1.3,1.8c-0.3,0.7-0.4,1.5-0.4,2.2v4.9c0,0.5-0.3,0.8-0.8,0.8h-0.8
		C140.3,116.5,140,116.2,140,115.6z"/>
	<path class="st1" d="M167.6,113.8l0.4-0.6c0.2-0.2,0.4-0.3,0.6-0.3s0.3,0.1,0.5,0.2c1.3,0.9,2.5,1.4,3.7,1.4c0.9,0,1.6-0.2,2.2-0.7
		c0.5-0.4,0.8-1,0.8-1.8c0-0.5-0.2-1-0.5-1.4c-0.3-0.4-0.7-0.7-1.2-1s-1-0.5-1.6-0.8s-1.2-0.5-1.8-0.8s-1.1-0.6-1.6-1
		s-0.9-0.8-1.2-1.4c-0.3-0.6-0.5-1.2-0.5-1.9c0-1.4,0.5-2.6,1.6-3.4c1.1-0.9,2.4-1.3,4-1.3c0.9,0,1.8,0.1,2.5,0.4
		c0.8,0.3,1.4,0.6,1.8,0.9c0.2,0.2,0.4,0.4,0.4,0.6c0,0.1,0,0.3-0.1,0.5l-0.3,0.6c-0.2,0.3-0.3,0.4-0.6,0.4c-0.2,0-0.3-0.1-0.5-0.2
		c-1.1-0.7-2.2-1-3.2-1c-0.9,0-1.6,0.2-2.2,0.7c-0.6,0.5-0.9,1-0.9,1.8c0,0.5,0.2,0.9,0.5,1.3c0.3,0.4,0.7,0.7,1.2,1s1,0.5,1.6,0.8
		c0.6,0.2,1.2,0.5,1.8,0.8s1.1,0.6,1.6,1s0.9,0.8,1.2,1.4c0.3,0.6,0.5,1.2,0.5,2c0,1.4-0.5,2.5-1.5,3.5c-1,0.9-2.3,1.4-4,1.4
		c-1.1,0-2.1-0.2-3-0.6s-1.6-0.8-2.2-1.2c-0.2-0.2-0.3-0.4-0.3-0.6C167.5,114.2,167.5,114,167.6,113.8z"/>
	<path class="st1" d="M181,100.8V100c0-0.5,0.3-0.8,0.8-0.8h0.8c0.5,0,0.8,0.3,0.8,0.8v0.8c0,0.3-0.1,0.5-0.2,0.6
		c-0.1,0.1-0.3,0.2-0.6,0.2h-0.8C181.3,101.7,181,101.3,181,100.8z M181,115.6v-10.7c0-0.5,0.3-0.8,0.8-0.8h0.8
		c0.5,0,0.8,0.3,0.8,0.8v10.7c0,0.5-0.3,0.8-0.8,0.8h-0.8C181.3,116.5,181,116.2,181,115.6z"/>
	<path class="st1" d="M186.8,115.6v-10.7c0-0.5,0.3-0.8,0.8-0.8h0.7c0.5,0,0.8,0.3,0.8,0.8v1.1l-0.1,0.7l0,0
		c0.1-0.3,0.3-0.6,0.6-0.9c0.3-0.3,0.5-0.6,0.9-0.9s0.8-0.6,1.4-0.8c0.6-0.2,1.1-0.3,1.8-0.3c1.4,0,2.5,0.4,3.2,1.2
		c0.7,0.8,1,2,1,3.5v7.1c0,0.5-0.3,0.8-0.8,0.8h-0.8c-0.5,0-0.8-0.3-0.8-0.8V109c0-0.5,0-0.9-0.1-1.2s-0.2-0.7-0.3-1
		c-0.2-0.3-0.4-0.5-0.7-0.7c-0.3-0.2-0.7-0.2-1.2-0.2c-1.2,0-2.2,0.4-2.9,1.3c-0.8,0.9-1.2,2-1.2,3.2v5.1c0,0.5-0.3,0.8-0.8,0.8
		h-0.8C187,116.5,186.8,116.2,186.8,115.6z"/>
	<path class="st1" d="M200.4,110.3c0-1.9,0.6-3.5,1.7-4.7c1.2-1.2,2.6-1.8,4.4-1.8c1.7,0,3,0.5,3.9,1.6s1.4,2.5,1.4,4.3
		c0,0.2-0.1,0.4-0.2,0.6c-0.2,0.2-0.4,0.2-0.6,0.2h-8.2c0.1,1.3,0.5,2.3,1.3,3.1c0.8,0.7,1.8,1.1,2.9,1.1s2.1-0.3,2.9-1
		c0.2-0.1,0.3-0.1,0.5-0.1c0.3,0,0.5,0.1,0.6,0.4l0.2,0.4c0.1,0.2,0.2,0.4,0.1,0.6c0,0.2-0.2,0.4-0.4,0.5c-1.2,0.9-2.6,1.3-4.2,1.3
		c-1.3,0-2.4-0.3-3.4-0.8c-1-0.6-1.8-1.3-2.3-2.3S200.4,111.5,200.4,110.3z M202.9,109h6.6c0-1-0.3-1.9-0.9-2.4
		c-0.6-0.5-1.3-0.9-2.1-0.9c-0.9,0-1.7,0.3-2.4,0.9C203.4,107.2,203,108,202.9,109z"/>
	<path class="st1" d="M214.4,115.6v-10.7c0-0.5,0.3-0.8,0.8-0.8h0.7c0.5,0,0.8,0.3,0.8,0.8v1.4l-0.1,0.9l0,0
		c0.3-0.9,0.8-1.6,1.5-2.3c0.7-0.6,1.4-1,2.3-1c0.5,0,0.8,0.3,0.8,0.8v0.7c0,0.5-0.3,0.8-0.9,0.8s-1.1,0.1-1.6,0.4s-0.8,0.7-1.1,1.2
		c-0.3,0.5-0.5,1-0.7,1.6c-0.2,0.6-0.2,1.2-0.2,1.8v4.3c0,0.5-0.3,0.8-0.8,0.8H215C214.6,116.5,214.4,116.2,214.4,115.6z"/>
	<path class="st1" d="M222,110c0-1.8,0.5-3.3,1.5-4.4s2.3-1.7,4-1.7c0.6,0,1.1,0.1,1.6,0.2s0.8,0.3,1.1,0.5c0.3,0.2,0.5,0.4,0.7,0.6
		c0.2,0.2,0.3,0.4,0.4,0.5l0.1,0.2l0,0c0-0.1,0-0.2,0-0.4v-0.7c0-0.5,0.3-0.7,0.8-0.7h0.6c0.5,0,0.8,0.3,0.8,0.8v11
		c0,0.8-0.1,1.5-0.4,2.1c-0.2,0.6-0.5,1.2-0.9,1.6s-0.8,0.8-1.4,1.1c-0.5,0.3-1.1,0.5-1.7,0.6s-1.2,0.2-1.8,0.2
		c-1.4,0-2.5-0.2-3.6-0.7c-0.3-0.1-0.5-0.4-0.5-0.7c0-0.1,0-0.3,0.1-0.4l0.2-0.4c0.1-0.3,0.4-0.5,0.6-0.5c0.1,0,0.2,0,0.4,0.1
		c1,0.4,1.9,0.5,2.7,0.5c0.5,0,1-0.1,1.5-0.2s0.9-0.3,1.2-0.6c0.4-0.3,0.6-0.6,0.8-1.1c0.2-0.5,0.3-1,0.3-1.6v-1.1l0.1-0.8l0,0
		c-0.8,1.4-2,2.1-3.7,2.1c-1.1,0-2.1-0.3-2.9-0.8c-0.8-0.6-1.5-1.3-1.9-2.3C222.3,112.3,222,111.2,222,110z M224.5,109.8
		c0,1.3,0.3,2.4,1,3.2c0.7,0.8,1.5,1.2,2.6,1.2c0.4,0,0.9-0.1,1.2-0.2c0.4-0.1,0.7-0.4,1-0.7c0.3-0.3,0.6-0.8,0.7-1.3
		c0.1-0.5,0.3-1.2,0.3-2c0-2.8-1.1-4.2-3.4-4.2c-1.1,0-1.9,0.4-2.5,1.1S224.5,108.6,224.5,109.8z"/>
	<path class="st1" d="M237,100.8V100c0-0.5,0.3-0.8,0.8-0.8h0.8c0.5,0,0.8,0.3,0.8,0.8v0.8c0,0.3-0.1,0.5-0.2,0.6
		c-0.1,0.1-0.3,0.2-0.6,0.2h-0.8C237.3,101.7,237,101.3,237,100.8z M237,115.6v-10.7c0-0.5,0.3-0.8,0.8-0.8h0.8
		c0.5,0,0.8,0.3,0.8,0.8v10.7c0,0.5-0.3,0.8-0.8,0.8h-0.8C237.3,116.5,237,116.2,237,115.6z"/>
	<path class="st9" d="M132.5,21.6V10c0-0.4,0.2-0.6,0.6-0.6h0.6c0.4,0,0.6,0.2,0.6,0.6v4.7h1.9l3-4.9c0.1-0.3,0.4-0.4,0.7-0.4h0.7
		c0.2,0,0.4,0.1,0.5,0.2s0.1,0.3-0.1,0.5l-3.3,5.3l0,0l3.5,6c0.1,0.1,0.1,0.2,0.1,0.3c0,0.1,0,0.1,0,0.2c-0.1,0.1-0.2,0.2-0.5,0.2
		h-0.7c-0.3,0-0.5-0.1-0.7-0.4l-3.2-5.4h-1.9v5.2c0,0.4-0.2,0.6-0.6,0.6h-0.6C132.6,22.2,132.5,22,132.5,21.6z"/>
	<path class="st9" d="M142,17.6c0-0.9,0.2-1.7,0.7-2.4c0.4-0.7,1-1.3,1.8-1.7c0.7-0.4,1.6-0.6,2.5-0.6c0.7,0,1.3,0.1,1.9,0.4
		c0.6,0.2,1.1,0.6,1.6,1s0.8,0.9,1,1.5c0.3,0.6,0.4,1.2,0.4,1.9c0,0.9-0.2,1.7-0.7,2.5s-1,1.3-1.8,1.7c-0.8,0.4-1.6,0.6-2.5,0.6
		s-1.7-0.2-2.5-0.6c-0.8-0.4-1.3-1-1.8-1.7C142.3,19.3,142,18.5,142,17.6z M143.9,17.6c0,0.9,0.3,1.7,0.9,2.3
		c0.6,0.6,1.4,0.9,2.2,0.9c0.9,0,1.6-0.3,2.2-0.9s0.9-1.4,0.9-2.3s-0.3-1.7-0.9-2.3c-0.6-0.6-1.3-0.9-2.2-0.9s-1.6,0.3-2.2,0.9
		C144.1,15.9,143.9,16.7,143.9,17.6z"/>
	<path class="st9" d="M153.3,17.6c0-0.9,0.2-1.7,0.7-2.4c0.4-0.7,1-1.3,1.8-1.7c0.7-0.4,1.6-0.6,2.5-0.6c0.7,0,1.3,0.1,1.9,0.4
		c0.6,0.2,1.1,0.6,1.6,1s0.8,0.9,1,1.5c0.3,0.6,0.4,1.2,0.4,1.9c0,0.9-0.2,1.7-0.7,2.5s-1,1.3-1.8,1.7c-0.8,0.4-1.6,0.6-2.5,0.6
		s-1.7-0.2-2.5-0.6c-0.8-0.4-1.3-1-1.8-1.7C153.5,19.3,153.3,18.5,153.3,17.6z M155,17.6c0,0.9,0.3,1.7,0.9,2.3
		c0.6,0.6,1.4,0.9,2.2,0.9c0.9,0,1.6-0.3,2.2-0.9s0.9-1.4,0.9-2.3s-0.3-1.7-0.9-2.3c-0.6-0.6-1.3-0.9-2.2-0.9s-1.6,0.3-2.2,0.9
		C155.3,15.9,155,16.7,155,17.6z"/>
	<path class="st9" d="M165,21.6v-7.9c0-0.4,0.2-0.6,0.6-0.6h0.5c0.4,0,0.6,0.2,0.6,0.6v1l-0.1,0.7l0,0c0.2-0.7,0.6-1.2,1.1-1.7
		s1.1-0.7,1.7-0.7c0.4,0,0.6,0.2,0.6,0.6v0.5c0,0.4-0.2,0.6-0.7,0.6c-0.4,0-0.8,0.1-1.2,0.3s-0.6,0.5-0.8,0.9
		c-0.2,0.4-0.4,0.8-0.5,1.2s-0.2,0.9-0.2,1.3v3.2c0,0.4-0.2,0.6-0.6,0.6h-0.6C165.1,22.2,165,22,165,21.6z"/>
	<path class="st9" d="M170.5,17.6c0-1.4,0.4-2.6,1.1-3.5c0.8-0.9,1.8-1.3,3-1.3c0.4,0,0.8,0.1,1.1,0.2c0.3,0.1,0.6,0.2,0.8,0.4
		c0.2,0.2,0.4,0.3,0.5,0.5s0.2,0.3,0.3,0.4l0.1,0.2l0,0c0-0.2-0.1-0.4-0.1-0.6V10c0-0.4,0.2-0.6,0.6-0.6h0.6c0.4,0,0.6,0.2,0.6,0.6
		v11.5c0,0.4-0.2,0.6-0.6,0.6h-0.5c-0.4,0-0.6-0.2-0.6-0.6V21v-0.4l0,0c0,0-0.1,0.1-0.1,0.2s-0.1,0.2-0.3,0.4
		c-0.2,0.2-0.4,0.4-0.6,0.5c-0.2,0.2-0.5,0.3-0.9,0.4s-0.8,0.2-1.2,0.2c-1.2,0-2.2-0.4-2.9-1.3C170.8,20.1,170.5,19,170.5,17.6z
		 M172.3,17.6c0,1,0.2,1.8,0.7,2.4s1.1,0.9,1.9,0.9c0.4,0,0.7-0.1,1-0.2c0.3-0.1,0.6-0.3,0.8-0.6c0.3-0.3,0.5-0.6,0.6-1
		s0.2-0.9,0.2-1.5c0-0.4-0.1-0.8-0.2-1.2c-0.1-0.4-0.3-0.7-0.5-1c-0.2-0.3-0.5-0.6-0.8-0.7c-0.3-0.2-0.7-0.3-1.1-0.3
		c-0.7,0-1.4,0.3-1.9,0.9C172.5,15.8,172.3,16.6,172.3,17.6z"/>
	<path class="st9" d="M181.8,10.6V10c0-0.4,0.2-0.6,0.6-0.6h0.6c0.4,0,0.6,0.2,0.6,0.6v0.6c0,0.2-0.1,0.3-0.2,0.4
		c-0.1,0.1-0.3,0.2-0.4,0.2h-0.6C182,11.2,181.8,11,181.8,10.6z M181.8,21.6v-7.9c0-0.4,0.2-0.6,0.6-0.6h0.6c0.4,0,0.6,0.2,0.6,0.6
		v7.9c0,0.4-0.2,0.6-0.6,0.6h-0.6C182,22.2,181.8,22,181.8,21.6z"/>
	<path class="st9" d="M186,21.6v-7.9c0-0.4,0.2-0.6,0.6-0.6h0.5c0.4,0,0.6,0.2,0.6,0.6v0.8l-0.1,0.5l0,0c0.1-0.2,0.2-0.4,0.4-0.7
		c0.2-0.2,0.4-0.5,0.7-0.7c0.3-0.2,0.6-0.4,1-0.6c0.4-0.1,0.8-0.2,1.3-0.2c1.1,0,1.8,0.3,2.3,0.9s0.8,1.5,0.8,2.6v5.2
		c0,0.4-0.2,0.6-0.6,0.6h-0.6c-0.4,0-0.6-0.2-0.6-0.6v-4.8c0-0.4,0-0.7-0.1-0.9s-0.1-0.5-0.2-0.7s-0.3-0.4-0.5-0.5
		c-0.2-0.1-0.5-0.2-0.9-0.2c-0.9,0-1.6,0.3-2.2,1c-0.6,0.7-0.9,1.4-0.9,2.4v3.8c0,0.4-0.2,0.6-0.6,0.6h-0.6
		C186.1,22.2,186,22,186,21.6z"/>
	<path class="st9" d="M195.9,19.7c0-0.4,0.1-0.7,0.2-1.1c0.1-0.4,0.3-0.6,0.5-0.8c0.2-0.2,0.5-0.4,0.8-0.6c0.3-0.2,0.6-0.3,0.9-0.4
		s0.7-0.2,1-0.2c0.3,0,0.7-0.1,1-0.1c0.3,0,0.6,0,0.9,0h0.5v-0.2c0-1.3-0.7-2-2-2c-0.7,0-1.4,0.2-2.1,0.6c-0.1,0.1-0.2,0.1-0.3,0.1
		c-0.2,0-0.4-0.1-0.5-0.3l-0.1-0.3c-0.1-0.1-0.1-0.3-0.1-0.4c0-0.2,0.1-0.3,0.3-0.4c0.9-0.5,1.9-0.8,3-0.8s2,0.3,2.6,0.9
		s0.9,1.5,0.9,2.6v5.2c0,0.4-0.2,0.6-0.6,0.6h-0.4c-0.4,0-0.6-0.2-0.6-0.6V21c0-0.1,0-0.2,0-0.3s0-0.2,0-0.2v-0.1l0,0
		c0,0.1-0.1,0.1-0.1,0.2s-0.2,0.2-0.3,0.5c-0.2,0.2-0.4,0.4-0.6,0.6s-0.5,0.3-0.8,0.5c-0.4,0.1-0.7,0.2-1.1,0.2
		c-0.8,0-1.6-0.2-2.2-0.7C196,21.2,195.9,20.5,195.9,19.7z M197.6,19.5c0,0.4,0.2,0.7,0.5,1c0.3,0.3,0.7,0.4,1.2,0.4
		s0.9-0.2,1.3-0.5s0.7-0.7,0.9-1.1c0.2-0.4,0.3-0.9,0.3-1.4v-0.2h-0.5C198.9,17.7,197.6,18.3,197.6,19.5z"/>
	<path class="st9" d="M205,14v-0.3c0-0.4,0.2-0.6,0.6-0.6h0.7v-2c0-0.4,0.2-0.6,0.6-0.6h0.5c0.4,0,0.6,0.2,0.6,0.6v2h1.6
		c0.4,0,0.6,0.2,0.6,0.6v0.2c0,0.4-0.2,0.6-0.6,0.6h-1.6v4.1c0,0.3,0,0.6,0.1,0.9s0.2,0.4,0.3,0.6c0.1,0.1,0.3,0.3,0.4,0.3
		c0.2,0.1,0.3,0.2,0.5,0.2c0.1,0,0.3,0.1,0.4,0.1c0.2,0,0.4,0.1,0.5,0.2s0.1,0.2,0.1,0.4v0.4c0,0.4-0.2,0.6-0.7,0.6
		c-1,0-1.8-0.3-2.4-0.9c-0.6-0.6-1-1.4-1-2.5v-4.3h-0.6C205.3,14.6,205,14.4,205,14z"/>
	<path class="st9" d="M211.3,17.6c0-0.9,0.2-1.7,0.7-2.4c0.4-0.7,1-1.3,1.8-1.7c0.7-0.4,1.6-0.6,2.5-0.6c0.7,0,1.3,0.1,1.9,0.4
		c0.6,0.3,1.1,0.6,1.6,1s0.8,0.9,1,1.5c0.3,0.6,0.4,1.2,0.4,1.9c0,0.9-0.2,1.7-0.7,2.5c-0.4,0.7-1,1.3-1.8,1.7
		c-0.7,0.4-1.6,0.6-2.5,0.6s-1.7-0.2-2.5-0.6c-0.7-0.4-1.3-1-1.8-1.7C211.5,19.3,211.3,18.5,211.3,17.6z M213,17.6
		c0,0.9,0.3,1.7,0.9,2.3c0.6,0.6,1.3,0.9,2.2,0.9s1.6-0.3,2.2-0.9c0.6-0.6,0.9-1.4,0.9-2.3s-0.3-1.7-0.9-2.3
		c-0.6-0.6-1.3-0.9-2.2-0.9s-1.6,0.3-2.2,0.9C213.4,15.9,213,16.7,213,17.6z"/>
	<path class="st9" d="M223,21.6v-7.9c0-0.4,0.2-0.6,0.6-0.6h0.5c0.4,0,0.6,0.2,0.6,0.6v1l-0.1,0.7l0,0c0.2-0.7,0.6-1.2,1.1-1.7
		s1.1-0.7,1.7-0.7c0.4,0,0.6,0.2,0.6,0.6v0.5c0,0.4-0.2,0.6-0.7,0.6c-0.4,0-0.8,0.1-1.2,0.3s-0.6,0.5-0.8,0.9
		c-0.2,0.4-0.4,0.8-0.5,1.2s-0.2,0.9-0.2,1.3v3.2c0,0.4-0.2,0.6-0.6,0.6h-0.6C223.3,22.2,223,22,223,21.6z"/>
	<circle id="XMLID_4_" class="st10" cx="39.1" cy="161" r="32.2"/>
	<path class="st8" d="M27.9,166.4v-15.1c0-0.5,0.3-0.8,0.8-0.8h5.1c1.4,0,2.6,0.4,3.5,1.1c0.9,0.8,1.3,1.8,1.3,3.1
		c0,0.8-0.2,1.5-0.5,2.2c-0.4,0.6-0.9,1.1-1.5,1.4v0c0.9,0.3,1.5,0.8,2,1.5s0.7,1.6,0.7,2.5c0,0.8-0.1,1.4-0.4,2.1s-0.7,1.1-1.2,1.5
		c-0.5,0.4-1.1,0.7-1.7,0.9c-0.6,0.2-1.3,0.3-2.1,0.3h-5.2C28.2,167.2,27.9,166.9,27.9,166.4z M30.2,157.5h3.5
		c0.7,0,1.3-0.2,1.8-0.7s0.7-1.1,0.7-1.8s-0.2-1.3-0.7-1.8c-0.4-0.4-1.1-0.7-1.8-0.7h-3.5V157.5z M30.2,165.1H34
		c0.9,0,1.6-0.3,2.1-0.8c0.5-0.5,0.8-1.2,0.8-2.1s-0.3-1.5-0.8-2.1c-0.5-0.5-1.2-0.8-2.1-0.8h-3.8V165.1z"/>
	<path class="st8" d="M41.4,166.4v-0.5c0-0.5,0.3-0.8,0.8-0.8h2.9v-10.8l0-1h0c-0.1,0.3-0.4,0.6-0.7,0.9l-1.1,1
		c-0.4,0.4-0.8,0.4-1.1,0l-0.3-0.3c-0.4-0.4-0.4-0.7,0-1.1l3-3c0.3-0.3,0.6-0.4,0.9-0.4h0.8c0.5,0,0.8,0.3,0.8,0.8v13.9h2.9
		c0.5,0,0.8,0.3,0.8,0.8v0.5c0,0.5-0.3,0.8-0.8,0.8h-8C41.7,167.2,41.4,166.9,41.4,166.4z"/>
</g>
</svg>
