<?xml version="1.0" encoding="utf-8"?>
<!-- Generator: Adobe Illustrator 19.0.0, SVG Export Plug-In . SVG Version: 6.00 Build 0)  -->
<svg version="1.1" id="Layer_1" xmlns="http://www.w3.org/2000/svg" xmlns:xlink="http://www.w3.org/1999/xlink" x="0px" y="0px"
	 viewBox="26 68.5 466.4 278" style="enable-background:new 26 68.5 466.4 278;" xml:space="preserve">
<style type="text/css">
	.st0{fill:#5E35B1;}
	.st1{fill:#D81B60;}
	.st2{fill:#C0CA33;}
	.st3{fill:#1E88E5;}
	.st4{fill:#23B6EA;}
	.st5{fill:#FFFFFF;}
	.st6{opacity:0.54;enable-background:new    ;}
</style>
<g>
	<g id="XMLID_119_">
		<path id="XMLID_123_" class="st0" d="M262.7,301.4v45c-76.8,0-139-62.2-139-139L147,191l21.8,16.4
			C168.7,259.3,210.7,301.4,262.7,301.4z"/>
		<path id="XMLID_122_" class="st1" d="M262.7,301.4l-17.5,20.4l17.5,24.6c76.8,0,139-62.2,139-139h-45
			C356.7,259.3,314.6,301.4,262.7,301.4z"/>
		<path id="XMLID_121_" class="st2" d="M262.7,113.4v-45c76.8,0,139,62.2,139,139l-22.2,17.5l-22.8-17.5
			C356.7,155.4,314.6,113.4,262.7,113.4z"/>
		<path id="XMLID_120_" class="st3" d="M262.7,113.4l16.5-22.1l-16.5-22.9c-76.8,0-139,62.2-139,139L147,191l21.8,16.4
			C168.7,155.4,210.7,113.4,262.7,113.4z"/>
	</g>
	<g id="XMLID_55_">
		<g id="XMLID_102_">
			<circle id="XMLID_118_" class="st4" cx="220.4" cy="227.4" r="9.7"/>
			<path id="XMLID_117_" class="st4" d="M288.4,187.9c1.3,6.3-2.7,12.5-9,13.8c-6.3,1.3-12.5-2.7-13.8-9c-1.3-6.3,2.7-12.5,9-13.8
				C280.8,177.6,287,181.6,288.4,187.9z"/>
			<path id="XMLID_116_" class="st4" d="M242.8,212c1,4.5-1.9,8.9-6.4,9.9s-8.9-1.9-9.9-6.4s1.9-8.9,6.4-9.9
				C237.4,204.6,241.8,207.5,242.8,212z"/>
			<circle id="XMLID_115_" class="st4" cx="262.3" cy="177" r="6.7"/>
			<path id="XMLID_114_" class="st4" d="M287.2,162.2c1.2,5.6-2.4,11.2-8,12.3c-5.6,1.2-11.1-2.4-12.3-8c-1.2-5.6,2.4-11.1,8-12.3
				C280.5,153,286.1,156.6,287.2,162.2z"/>
			<path id="XMLID_113_" class="st4" d="M244.2,195.3c0.8,3.7-1.6,7.4-5.3,8.2s-7.4-1.6-8.2-5.3s1.6-7.4,5.3-8.2
				C239.7,189.3,243.4,191.6,244.2,195.3z"/>
			<path id="XMLID_112_" class="st4" d="M305.9,188c0.9,4-1.7,8-5.7,8.8c-4,0.9-8-1.7-8.8-5.7c-0.9-4,1.7-8,5.7-8.8
				C301.1,181.4,305.1,184,305.9,188z"/>
			<path id="XMLID_111_" class="st4" d="M318,203.3c1,4.8-2,9.5-6.8,10.5s-9.5-2-10.5-6.8s2-9.5,6.8-10.5
				C312.3,195.4,317,198.5,318,203.3z"/>
			<path id="XMLID_110_" class="st4" d="M249.1,182.3c0.6,3-1.3,6-4.3,6.6c-3,0.6-6-1.3-6.6-4.3s1.3-6,4.3-6.6
				C245.5,177.4,248.5,179.3,249.1,182.3z"/>
			<path id="XMLID_109_" class="st4" d="M251.4,205c0.5,2.4-1,4.7-3.4,5.2s-4.7-1-5.2-3.4s1-4.7,3.4-5.2
				C248.6,201.1,250.9,202.6,251.4,205z"/>
			<circle id="XMLID_108_" class="st4" cx="219.6" cy="209.1" r="5.4"/>
			<path id="XMLID_107_" class="st4" d="M229.1,193.4c0.8,3.7-1.6,7.3-5.2,8.1c-3.7,0.8-7.3-1.6-8.1-5.2c-0.8-3.7,1.6-7.3,5.2-8.1
				C224.7,187.4,228.3,189.7,229.1,193.4z"/>
			<path id="XMLID_106_" class="st4" d="M262.9,191.9c0.9,4.3-1.8,8.6-6.2,9.5c-4.3,0.9-8.6-1.8-9.5-6.2c-0.9-4.3,1.8-8.6,6.2-9.5
				C257.7,184.8,261.9,187.5,262.9,191.9z"/>
			<circle id="XMLID_105_" class="st4" cx="290.4" cy="176.6" r="5.6"/>
			<path id="XMLID_104_" class="st4" d="M297.1,200.7c0.5,2.5-1.1,5-3.6,5.5s-5-1.1-5.5-3.6s1.1-5,3.6-5.5
				C294.1,196.6,296.6,198.2,297.1,200.7z"/>
			<circle id="XMLID_103_" class="st4" cx="227.7" cy="177.4" r="9.4"/>
		</g>
		<g id="XMLID_56_">
			<path id="XMLID_100_" d="M246.8,252.6c0-0.4,0.2-0.6,0.5-0.6h4.3c0.4,0,0.6,0.2,0.6,0.6v0.4c0,0.4-0.2,0.5-0.6,0.5h-3.1v2.7h2.5
				c0.4,0,0.6,0.2,0.6,0.5v0.4c0,0.4-0.2,0.6-0.6,0.6h-2.5v3.2c0,0.4-0.2,0.6-0.5,0.6h-0.6c-0.4,0-0.5-0.2-0.5-0.6L246.8,252.6
				L246.8,252.6z"/>
			<path id="XMLID_98_" d="M253.8,252.6c0-0.4,0.2-0.6,0.5-0.6h0.6c0.4,0,0.5,0.2,0.5,0.6v5.4c0,1.3,0.8,2,2.1,2
				c1.2,0,2.1-0.7,2.1-2v-5.4c0-0.4,0.2-0.6,0.5-0.6h0.6c0.4,0,0.5,0.2,0.5,0.6v5.5c0,2.1-1.5,3.5-3.7,3.5c-2.3,0-3.8-1.4-3.8-3.5
				L253.8,252.6L253.8,252.6z"/>
			<path id="XMLID_96_" d="M263.4,259.9l0.3-0.4c0.2-0.3,0.4-0.3,0.8-0.1c0.3,0.2,1,0.7,1.9,0.7s1.4-0.4,1.4-1.1
				c0-1.8-4.3-1.4-4.3-4.3c0-1.7,1.4-2.7,3.1-2.7c1.1,0,2,0.4,2.4,0.7c0.3,0.2,0.3,0.5,0.2,0.8l-0.2,0.4c-0.2,0.4-0.5,0.3-0.7,0.2
				c-0.4-0.2-0.9-0.5-1.6-0.5c-0.9,0-1.4,0.4-1.4,1.1c0,1.8,4.3,1.3,4.3,4.3c0,1.5-1.1,2.8-3.1,2.8c-1.3,0-2.4-0.6-2.9-0.9
				C263.2,260.4,263.1,260.2,263.4,259.9z"/>
			<path id="XMLID_94_" d="M271,252.6c0-0.4,0.2-0.6,0.5-0.6h0.6c0.4,0,0.5,0.2,0.5,0.6v8.3c0,0.4-0.2,0.6-0.5,0.6h-0.6
				c-0.4,0-0.5-0.2-0.5-0.6V252.6z"/>
			<path id="XMLID_91_" d="M279.2,251.9c2.8,0,4.8,2.1,4.8,4.8c0,2.8-2,4.9-4.8,4.9c-2.8,0-4.8-2.2-4.8-4.9
				C274.3,254,276.3,251.9,279.2,251.9z M279.2,260c1.8,0,3.1-1.5,3.1-3.4c0-1.8-1.3-3.2-3.1-3.2s-3.1,1.4-3.1,3.2
				C276.1,258.6,277.4,260,279.2,260z"/>
			<path id="XMLID_89_" d="M285.4,252.6c0-0.4,0.2-0.6,0.5-0.6h0.7c0.3,0,0.5,0.1,0.7,0.4l3.3,5c0.4,0.6,0.8,1.5,0.8,1.5l0,0
				c0,0-0.1-0.9-0.1-1.5v-4.9c0-0.4,0.2-0.6,0.6-0.6h0.6c0.4,0,0.5,0.2,0.5,0.6v8.3c0,0.4-0.2,0.6-0.5,0.6h-0.7
				c-0.3,0-0.5-0.1-0.6-0.4l-3.3-5c-0.3-0.6-0.8-1.5-0.8-1.5l0,0c0,0,0.1,0.9,0.1,1.5v4.8c0,0.4-0.2,0.6-0.5,0.6h-0.6
				c-0.4,0-0.5-0.2-0.5-0.6v-8.2H285.4z"/>
			<path id="XMLID_87_" d="M247.5,222.8c0-0.3,0.2-0.5,0.6-0.5h0.8c0.3,0,0.5,0.1,0.6,0.5l1.7,4.2c0.2,0.6,0.5,1.4,0.5,1.4l0,0
				c0,0,0.2-0.8,0.5-1.4l1.7-4.2c0.1-0.3,0.3-0.5,0.6-0.5h0.8c0.3,0,0.5,0.2,0.6,0.5l0.7,8.3c0,0.4-0.2,0.6-0.5,0.6h-0.6
				c-0.3,0-0.5-0.2-0.6-0.5l-0.4-4.7c0-0.6,0-1.5,0-1.5l0,0c0,0-0.3,0.9-0.5,1.5l-1.4,3.2c-0.1,0.3-0.3,0.4-0.6,0.4h-0.5
				c-0.3,0-0.5-0.1-0.6-0.4l-1.3-3.2c-0.2-0.5-0.5-1.5-0.5-1.5l0,0c0,0,0,0.8,0,1.5l-0.4,4.7c0,0.3-0.2,0.5-0.6,0.5h-0.6
				c-0.4,0-0.6-0.2-0.5-0.6L247.5,222.8z"/>
			<path id="XMLID_84_" d="M260.9,222.7c0.1-0.3,0.3-0.5,0.6-0.5h0.8c0.3,0,0.5,0.1,0.6,0.5l2.9,8.3c0.1,0.4,0,0.6-0.4,0.6h-0.6
				c-0.3,0-0.5-0.1-0.6-0.4l-0.7-2h-3.3l-0.6,1.9c-0.1,0.3-0.3,0.5-0.6,0.5h-0.6c-0.4,0-0.6-0.3-0.4-0.6L260.9,222.7z M263.2,227.8
				l-0.8-2.5c-0.2-0.5-0.4-1.5-0.4-1.5l0,0c0,0-0.2,0.9-0.4,1.5l-0.8,2.5H263.2z"/>
			<path id="XMLID_82_" d="M267.2,222.8c0-0.4,0.2-0.6,0.5-0.6h0.6c0.4,0,0.5,0.2,0.5,0.6v7.4h3.5c0.4,0,0.6,0.2,0.6,0.5v0.4
				c0,0.4-0.2,0.6-0.6,0.6h-4.6c-0.4,0-0.5-0.2-0.5-0.6V222.8z"/>
			<path id="XMLID_79_" d="M276.9,222.7c0.1-0.3,0.3-0.5,0.6-0.5h0.8c0.3,0,0.5,0.1,0.6,0.5l2.9,8.3c0.1,0.4,0,0.6-0.4,0.6h-0.6
				c-0.3,0-0.5-0.1-0.6-0.4l-0.7-2h-3.3l-0.6,1.9c-0.1,0.3-0.3,0.5-0.6,0.5h-0.6c-0.4,0-0.6-0.3-0.4-0.6L276.9,222.7z M279.1,227.8
				l-0.8-2.5c-0.2-0.5-0.4-1.5-0.4-1.5l0,0c0,0-0.2,0.9-0.4,1.5l-0.8,2.5H279.1z"/>
			<path id="XMLID_77_" d="M283.1,222.8c0-0.4,0.2-0.6,0.5-0.6h0.7c0.3,0,0.5,0.1,0.7,0.4l3.3,5c0.4,0.6,0.8,1.5,0.8,1.5l0,0
				c0,0-0.1-0.9-0.1-1.5v-4.9c0-0.4,0.2-0.6,0.6-0.6h0.6c0.4,0,0.5,0.2,0.5,0.6v8.3c0,0.4-0.2,0.6-0.5,0.6h-0.7
				c-0.3,0-0.5-0.1-0.6-0.4l-3.3-5c-0.3-0.6-0.8-1.5-0.8-1.5l0,0c0,0,0.1,0.9,0.1,1.5v4.8c0,0.4-0.2,0.6-0.5,0.6h-0.6
				c-0.4,0-0.5-0.2-0.5-0.6v-8.2H283.1z"/>
			<path id="XMLID_75_" d="M297.4,222.1c1.5,0,2.7,0.6,3,0.9c0.3,0.2,0.3,0.5,0.1,0.8l-0.2,0.4c-0.2,0.3-0.4,0.3-0.8,0.1
				s-1.1-0.6-2.1-0.6c-2,0-3.2,1.5-3.2,3.3c0,2,1.4,3.3,3.1,3.3c1.6,0,2.4-1,2.4-1v-1h-0.9c-0.4,0-0.5-0.2-0.5-0.6v-0.4
				c0-0.4,0.2-0.6,0.5-0.6h1.9c0.4,0,0.5,0.2,0.5,0.6v3.8c0,0.4-0.2,0.6-0.5,0.6h-0.3c-0.4,0-0.5-0.2-0.5-0.4v-0.2
				c0-0.1,0-0.2,0-0.2l0,0c0,0-0.9,1.1-2.7,1.1c-2.5,0-4.6-1.9-4.6-4.8C292.6,224.2,294.6,222.1,297.4,222.1z"/>
			<path id="XMLID_73_" d="M251.6,237.2c1.5,0,2.5,0.6,3,0.9c0.3,0.2,0.3,0.5,0.1,0.8l-0.2,0.4c-0.2,0.3-0.4,0.3-0.7,0.1
				c-0.4-0.3-1.1-0.7-2.1-0.7c-2,0-3.1,1.5-3.1,3.2c0,1.8,1.1,3.4,3.1,3.4c1.1,0,1.9-0.5,2.3-0.8c0.3-0.2,0.6-0.2,0.8,0.1l0.3,0.4
				c0.2,0.3,0.2,0.5-0.1,0.8c-0.5,0.4-1.6,1.2-3.3,1.2c-2.9,0-4.8-2.1-4.8-4.9C246.8,239.3,248.8,237.2,251.6,237.2z"/>
			<path id="XMLID_70_" d="M256.6,237.9c0-0.4,0.2-0.6,0.5-0.6h2.5c0.9,0,1.4,0.1,1.8,0.3c0.9,0.4,1.6,1.3,1.6,2.6
				c0,1.1-0.6,2.2-1.5,2.6l0,0c0,0,0.1,0.1,0.3,0.5l1.5,2.8c0.2,0.4,0.1,0.7-0.4,0.7h-0.7c-0.3,0-0.5-0.1-0.6-0.4l-1.6-3.1h-1.6v2.9
				c0,0.4-0.2,0.6-0.5,0.6h-0.6c-0.4,0-0.5-0.2-0.5-0.6v-8.3H256.6z M259.8,241.8c0.9,0,1.5-0.6,1.5-1.5c0-0.6-0.2-1.1-0.7-1.3
				c-0.2-0.1-0.5-0.2-1-0.2h-1.2v2.9h1.4V241.8z"/>
			<path id="XMLID_68_" d="M264.8,237.9c0-0.4,0.2-0.6,0.5-0.6h4.5c0.4,0,0.6,0.2,0.6,0.6v0.4c0,0.4-0.2,0.5-0.6,0.5h-3.3v2.5h2.6
				c0.4,0,0.6,0.2,0.6,0.5v0.4c0,0.4-0.2,0.6-0.6,0.6h-2.6v2.5h3.6c0.4,0,0.6,0.2,0.6,0.5v0.4c0,0.4-0.2,0.6-0.6,0.6h-4.7
				c-0.4,0-0.5-0.2-0.5-0.6v-8.3H264.8z"/>
			<path id="XMLID_65_" d="M274.7,237.8c0.1-0.3,0.3-0.4,0.6-0.4h0.8c0.3,0,0.5,0.1,0.6,0.4l2.9,8.3c0.1,0.4,0,0.6-0.4,0.6h-0.6
				c-0.3,0-0.5-0.1-0.6-0.5l-0.7-2H274l-0.6,1.9c-0.1,0.3-0.3,0.5-0.6,0.5h-0.6c-0.4,0-0.6-0.3-0.4-0.6L274.7,237.8z M277,243
				l-0.8-2.5c-0.2-0.5-0.4-1.5-0.4-1.5l0,0c0,0-0.2,0.9-0.4,1.5l-0.8,2.5H277z"/>
			<path id="XMLID_63_" d="M282.2,238.8h-2.5c-0.4,0-0.6-0.2-0.6-0.5v-0.4c0-0.4,0.2-0.6,0.6-0.6h6.7c0.4,0,0.5,0.2,0.5,0.6v0.4
				c0,0.4-0.2,0.5-0.5,0.5h-2.5v7.4c0,0.4-0.2,0.6-0.5,0.6h-0.6c-0.4,0-0.5-0.2-0.5-0.6v-7.4H282.2z"/>
			<path id="XMLID_61_" d="M288.1,237.9c0-0.4,0.2-0.6,0.5-0.6h0.6c0.4,0,0.5,0.2,0.5,0.6v8.3c0,0.4-0.2,0.6-0.5,0.6h-0.6
				c-0.4,0-0.5-0.2-0.5-0.6V237.9z"/>
			<path id="XMLID_59_" d="M291.4,238c-0.1-0.4,0-0.6,0.4-0.6h0.7c0.3,0,0.5,0.1,0.6,0.5l1.9,5.7c0.2,0.5,0.4,1.4,0.4,1.4l0,0
				c0,0,0.2-0.8,0.4-1.4l1.9-5.7c0.1-0.3,0.3-0.5,0.6-0.5h0.7c0.4,0,0.6,0.3,0.4,0.6l-3,8.3c-0.1,0.3-0.3,0.4-0.6,0.4H295
				c-0.3,0-0.5-0.1-0.6-0.4L291.4,238z"/>
			<path id="XMLID_57_" d="M300.5,237.9c0-0.4,0.2-0.6,0.5-0.6h4.5c0.4,0,0.6,0.2,0.6,0.6v0.4c0,0.4-0.2,0.5-0.6,0.5h-3.4v2.5h2.6
				c0.4,0,0.6,0.2,0.6,0.5v0.4c0,0.4-0.2,0.6-0.6,0.6h-2.6v2.5h3.6c0.4,0,0.6,0.2,0.6,0.5v0.4c0,0.4-0.2,0.6-0.6,0.6H301
				c-0.4,0-0.5-0.2-0.5-0.6V237.9z"/>
		</g>
	</g>
	<g id="XMLID_48_">
		
			<image style="overflow:visible;opacity:0.22;enable-background:new    ;" width="700" height="258" id="XMLID_129_" xlink:href="B3C0B8E9.png"  transform="matrix(0.2383 0 0 0.2372 22.3193 82.9898)">
		</image>
		<g id="XMLID_36_">
			<g id="XMLID_125_">
				<path id="XMLID_126_" class="st5" d="M26.8,137c0,1.1,0.9,2,2,2h143.7c1.1,0,2-0.9,2-2v-14l10-10l-10-10V89c0-1.1-0.9-2-2-2
					H28.8c-1.1,0-2,0.9-2,2C26.8,89,26.8,137,26.8,137z"/>
			</g>
		</g>
	</g>
	<g id="XMLID_34_">
		
			<image style="overflow:visible;opacity:0.22;enable-background:new    ;" width="696" height="258" id="XMLID_124_" xlink:href="B3C0B8EB.png"  transform="matrix(0.2397 0 0 0.2372 331.0088 82.9898)">
		</image>
		<g id="XMLID_33_">
			<g id="XMLID_50_">
				<path id="XMLID_51_" class="st5" d="M493.2,89c0-1.1-0.9-2-2-2H347.5c-1.1,0-2,0.9-2,2v14l-10,10l10,10v14c0,1.1,0.9,2,2,2
					h143.7c1.1,0,2-0.9,2-2V89z"/>
			</g>
		</g>
	</g>
	<g id="XMLID_14_">
		
			<image style="overflow:visible;opacity:0.22;enable-background:new    ;" width="700" height="258" id="XMLID_49_" xlink:href="B3C0B8EE.png"  transform="matrix(0.2383 0 0 0.2372 22.3193 266.7378)">
		</image>
		<g id="XMLID_31_">
			<g id="XMLID_43_">
				<path id="XMLID_44_" class="st5" d="M26.8,320.8c0,1.1,0.9,2,2,2h143.7c1.1,0,2-0.9,2-2v-14l10-10l-10-10v-14c0-1.1-0.9-2-2-2
					H28.8c-1.1,0-2,0.9-2,2C26.8,272.8,26.8,320.8,26.8,320.8z"/>
			</g>
		</g>
	</g>
	<g id="XMLID_7_">
		
			<image style="overflow:visible;opacity:0.22;enable-background:new    ;" width="696" height="258" id="XMLID_42_" xlink:href="B3C0B8EF.png"  transform="matrix(0.2397 0 0 0.2372 331.0088 266.7378)">
		</image>
		<g id="XMLID_28_">
			<g id="XMLID_38_">
				<path id="XMLID_39_" class="st5" d="M493.2,272.8c0-1.1-0.9-2-2-2H347.5c-1.1,0-2,0.9-2,2v14l-10,10l10,10v14c0,1.1,0.9,2,2,2
					h143.7c1.1,0,2-0.9,2-2V272.8z"/>
			</g>
		</g>
	</g>
	<g class="st6">
		<path d="M47.8,118.9l4.9-13.5c0.1-0.4,0.4-0.6,0.8-0.6h1c0.4,0,0.7,0.2,0.8,0.6l4.9,13.5c0,0.1,0.1,0.2,0.1,0.3
			c0,0.1,0,0.2-0.1,0.3c-0.1,0.2-0.3,0.2-0.5,0.2h-0.7c-0.4,0-0.7-0.2-0.8-0.6l-1.3-3.7h-5.6l-1.3,3.7c-0.1,0.4-0.4,0.6-0.8,0.6
			h-0.7c-0.3,0-0.4-0.1-0.5-0.2c-0.1-0.1-0.1-0.2-0.1-0.3C47.7,119.1,47.7,119,47.8,118.9z M51.6,113.7h4.5l-1.6-4.7
			c-0.1-0.2-0.2-0.5-0.3-0.9s-0.2-0.6-0.2-0.9l-0.1-0.4h0c-0.2,0.9-0.4,1.6-0.6,2.1L51.6,113.7z"/>
		<path d="M61.9,119v-13.4c0-0.5,0.2-0.7,0.7-0.7h0.6c0.5,0,0.7,0.2,0.7,0.7v7.4h1.5l2.6-3.4c0.2-0.3,0.4-0.4,0.8-0.4h0.8
			c0.3,0,0.5,0.1,0.5,0.2s0,0.4-0.1,0.6l-2.9,3.8v0.1l3.4,5.1c0.1,0.2,0.1,0.3,0.1,0.4c0,0.1,0,0.1-0.1,0.2
			c-0.1,0.2-0.3,0.2-0.6,0.2h-0.8c-0.4,0-0.6-0.2-0.8-0.5l-2.9-4.5h-1.6v4.3c0,0.5-0.2,0.7-0.7,0.7h-0.6
			C62.1,119.7,61.9,119.5,61.9,119z"/>
		<path d="M71.7,116.8c0-0.5,0.1-0.9,0.2-1.2s0.4-0.7,0.6-0.9c0.3-0.3,0.6-0.5,0.9-0.7c0.4-0.2,0.7-0.3,1.1-0.4
			c0.4-0.1,0.8-0.2,1.2-0.3c0.4-0.1,0.8-0.1,1.2-0.1c0.3,0,0.7,0,1.1,0h0.5v-0.3c0-1.6-0.8-2.3-2.3-2.3c-0.8,0-1.6,0.2-2.4,0.7
			c-0.1,0.1-0.3,0.1-0.4,0.1c-0.2,0-0.4-0.1-0.6-0.3l-0.2-0.3c-0.1-0.2-0.1-0.3-0.1-0.4c0-0.2,0.1-0.4,0.3-0.5
			c1-0.6,2.2-0.9,3.4-0.9c1.3,0,2.4,0.4,3.1,1.1s1.1,1.7,1.1,3.1v6c0,0.5-0.2,0.7-0.7,0.7h-0.5c-0.5,0-0.7-0.2-0.7-0.7v-0.6
			c0-0.1,0-0.2,0-0.3s0-0.2,0-0.2l0-0.1h-0.1c0,0.1-0.1,0.1-0.1,0.2c-0.1,0.1-0.2,0.3-0.4,0.5c-0.2,0.3-0.4,0.5-0.7,0.7
			c-0.2,0.2-0.6,0.4-1,0.5c-0.4,0.2-0.8,0.2-1.3,0.2c-1,0-1.8-0.3-2.5-0.9C72.1,118.5,71.7,117.8,71.7,116.8z M73.8,116.6
			c0,0.5,0.2,0.9,0.5,1.2c0.4,0.3,0.8,0.5,1.5,0.5c0.6,0,1.1-0.2,1.5-0.5s0.8-0.8,1-1.3c0.2-0.5,0.3-1,0.3-1.6v-0.5h-0.5
			C75.2,114.5,73.8,115.2,73.8,116.6z"/>
		<path d="M82.8,114.4c0-1.7,0.4-3,1.3-4s2-1.5,3.5-1.5c0.5,0,0.9,0.1,1.3,0.2c0.4,0.1,0.7,0.3,0.9,0.5c0.2,0.2,0.4,0.4,0.6,0.5
			c0.2,0.2,0.3,0.3,0.4,0.5l0.1,0.2h0c0-0.2-0.1-0.4-0.1-0.7v-4.4c0-0.5,0.2-0.7,0.7-0.7h0.6c0.5,0,0.7,0.2,0.7,0.7V119
			c0,0.5-0.2,0.7-0.7,0.7h-0.5c-0.5,0-0.7-0.2-0.7-0.6v-0.6l0-0.5h0c0,0.1-0.1,0.1-0.1,0.2c0,0.1-0.2,0.3-0.4,0.5
			c-0.2,0.2-0.4,0.4-0.7,0.6c-0.2,0.2-0.6,0.3-1,0.5c-0.4,0.1-0.9,0.2-1.4,0.2c-1.4,0-2.6-0.5-3.4-1.5
			C83.2,117.4,82.8,116.1,82.8,114.4z M84.8,114.4c0,1.1,0.3,2.1,0.8,2.8c0.6,0.7,1.3,1,2.2,1c0.4,0,0.8-0.1,1.1-0.2
			c0.4-0.1,0.7-0.4,1-0.7c0.3-0.3,0.5-0.7,0.7-1.2c0.2-0.5,0.3-1.1,0.3-1.7c0-0.5-0.1-0.9-0.2-1.4c-0.1-0.4-0.3-0.8-0.5-1.2
			c-0.2-0.4-0.6-0.6-0.9-0.9c-0.4-0.2-0.8-0.3-1.3-0.3c-0.9,0-1.6,0.3-2.2,1S84.8,113.2,84.8,114.4z"/>
		<path d="M95.2,114.4c0-1.7,0.5-3,1.5-4c1-1,2.3-1.5,3.8-1.5c1.4,0,2.6,0.5,3.4,1.4c0.8,0.9,1.2,2.2,1.2,3.7c0,0.2-0.1,0.4-0.2,0.5
			c-0.1,0.1-0.3,0.2-0.5,0.2h-7.1c0.1,1.1,0.4,2,1.1,2.6c0.7,0.6,1.5,1,2.5,1c0.9,0,1.8-0.3,2.5-0.8c0.2-0.1,0.3-0.1,0.4-0.1
			c0.2,0,0.4,0.1,0.5,0.3l0.2,0.3c0.1,0.2,0.1,0.4,0.1,0.5c0,0.2-0.1,0.3-0.3,0.4c-1.1,0.8-2.3,1.1-3.6,1.1c-1.1,0-2.1-0.2-2.9-0.7
			c-0.9-0.5-1.5-1.2-2-2C95.4,116.4,95.2,115.4,95.2,114.4z M97.3,113.3h5.7c0-0.9-0.3-1.6-0.8-2.1s-1.1-0.7-1.8-0.7
			c-0.8,0-1.5,0.3-2,0.8C97.8,111.7,97.5,112.4,97.3,113.3z"/>
		<path d="M107.3,119v-9.2c0-0.5,0.2-0.7,0.7-0.7h0.6c0.5,0,0.7,0.2,0.7,0.7v1l-0.1,0.6h0c0.3-0.7,0.8-1.3,1.5-1.8
			c0.7-0.5,1.4-0.8,2.2-0.8c1.8,0,2.8,0.8,3.2,2.4h0c0.3-0.7,0.8-1.2,1.5-1.7c0.7-0.5,1.4-0.7,2.3-0.7c1.2,0,2.1,0.3,2.6,1
			c0.6,0.7,0.9,1.7,0.9,3.1v6.1c0,0.5-0.2,0.7-0.7,0.7h-0.7c-0.5,0-0.7-0.2-0.7-0.7v-5.7c0-0.4,0-0.8-0.1-1.1
			c-0.1-0.3-0.1-0.6-0.3-0.8c-0.1-0.3-0.3-0.5-0.6-0.6s-0.6-0.2-1-0.2c-0.6,0-1.2,0.2-1.7,0.6c-0.5,0.4-0.9,0.9-1.1,1.5
			s-0.4,1.3-0.4,2v4.2c0,0.5-0.2,0.7-0.7,0.7h-0.7c-0.4,0-0.7-0.2-0.7-0.7v-5.7c0-0.4,0-0.7-0.1-1c0-0.3-0.1-0.6-0.2-0.8
			c-0.1-0.3-0.3-0.5-0.6-0.6s-0.6-0.2-1-0.2c-0.6,0-1.2,0.2-1.7,0.6s-0.9,0.9-1.1,1.5s-0.4,1.3-0.4,1.9v4.2c0,0.5-0.2,0.7-0.7,0.7
			H108C107.5,119.7,107.3,119.5,107.3,119z"/>
		<path d="M126.2,106.3v-0.7c0-0.5,0.2-0.7,0.7-0.7h0.7c0.5,0,0.7,0.2,0.7,0.7v0.7c0,0.2-0.1,0.4-0.2,0.5c-0.1,0.1-0.3,0.2-0.5,0.2
			h-0.7C126.4,107,126.2,106.7,126.2,106.3z M126.2,119v-9.2c0-0.5,0.2-0.7,0.7-0.7h0.7c0.5,0,0.7,0.2,0.7,0.7v9.2
			c0,0.5-0.2,0.7-0.7,0.7h-0.7C126.5,119.7,126.2,119.5,126.2,119z"/>
		<path d="M130.6,117.9l0.2-0.3c0.1-0.2,0.3-0.3,0.4-0.3s0.3,0,0.5,0.2c0.9,0.6,1.7,0.9,2.6,0.9c0.5,0,1-0.1,1.3-0.4s0.5-0.6,0.5-1
			c0-0.3-0.1-0.5-0.3-0.7c-0.2-0.2-0.5-0.4-0.8-0.5c-0.3-0.1-0.7-0.3-1.1-0.4c-0.4-0.1-0.8-0.3-1.2-0.5c-0.4-0.2-0.8-0.4-1.1-0.6
			c-0.3-0.2-0.6-0.5-0.8-0.9c-0.2-0.4-0.3-0.8-0.3-1.3c0-1,0.4-1.7,1.1-2.3s1.7-0.8,2.8-0.8c1.1,0,2.1,0.3,3,0.8
			c0.2,0.1,0.3,0.2,0.3,0.4c0,0.2,0,0.3-0.1,0.5l-0.2,0.3c-0.1,0.2-0.3,0.3-0.5,0.3c-0.1,0-0.3,0-0.4-0.1c-0.7-0.4-1.4-0.6-2.2-0.6
			c-0.5,0-1,0.1-1.3,0.3c-0.3,0.2-0.5,0.6-0.5,1c0,0.3,0.1,0.5,0.3,0.8c0.2,0.2,0.5,0.4,0.8,0.5c0.3,0.1,0.7,0.3,1.1,0.4
			s0.8,0.3,1.2,0.5s0.8,0.4,1.1,0.6c0.3,0.2,0.6,0.5,0.8,0.9s0.3,0.8,0.3,1.3c0,0.9-0.4,1.7-1.1,2.2c-0.7,0.6-1.6,0.9-2.8,0.9
			c-1.4,0-2.6-0.4-3.6-1.1c-0.2-0.1-0.3-0.3-0.3-0.5C130.5,118.2,130.5,118,130.6,117.9z"/>
		<path d="M140.4,106.3v-0.7c0-0.5,0.2-0.7,0.7-0.7h0.7c0.5,0,0.7,0.2,0.7,0.7v0.7c0,0.2-0.1,0.4-0.2,0.5c-0.1,0.1-0.3,0.2-0.5,0.2
			h-0.7C140.6,107,140.4,106.7,140.4,106.3z M140.4,119v-9.2c0-0.5,0.2-0.7,0.7-0.7h0.7c0.5,0,0.7,0.2,0.7,0.7v9.2
			c0,0.5-0.2,0.7-0.7,0.7h-0.7C140.7,119.7,140.4,119.5,140.4,119z"/>
	</g>
	<g class="st6">
		<path d="M375.4,119v-13.4c0-0.5,0.2-0.7,0.7-0.7h0.7c0.5,0,0.7,0.2,0.7,0.7v5.5h2.2l3.5-5.8c0.2-0.3,0.4-0.5,0.8-0.5h0.8
			c0.3,0,0.5,0.1,0.5,0.2c0.1,0.2,0.1,0.4-0.1,0.6l-3.8,6.2v0l4.1,6.9c0.1,0.1,0.1,0.3,0.1,0.4c0,0.1,0,0.1-0.1,0.2
			c-0.1,0.2-0.3,0.2-0.6,0.2h-0.9c-0.4,0-0.6-0.2-0.8-0.5l-3.7-6.3h-2.2v6.1c0,0.5-0.2,0.7-0.7,0.7h-0.7
			C375.7,119.7,375.4,119.5,375.4,119z"/>
		<path d="M386.7,114.4c0-1,0.3-2,0.8-2.8c0.5-0.9,1.2-1.5,2.1-2c0.9-0.5,1.8-0.7,2.9-0.7c0.8,0,1.5,0.1,2.2,0.4
			c0.7,0.3,1.3,0.7,1.8,1.1s0.9,1.1,1.2,1.8c0.3,0.7,0.4,1.4,0.4,2.2c0,1.1-0.3,2-0.8,2.9c-0.5,0.9-1.2,1.5-2.1,2
			c-0.9,0.5-1.8,0.7-2.9,0.7c-1,0-2-0.2-2.9-0.7c-0.9-0.5-1.6-1.1-2.1-2C386.9,116.4,386.7,115.4,386.7,114.4z M388.7,114.4
			c0,1.1,0.4,2,1.1,2.7c0.7,0.7,1.6,1.1,2.6,1.1c1,0,1.9-0.4,2.6-1.1s1.1-1.6,1.1-2.7c0-1.1-0.4-2-1.1-2.7s-1.6-1.1-2.6-1.1
			c-1,0-1.9,0.4-2.6,1.1S388.7,113.3,388.7,114.4z"/>
		<path d="M400.4,119v-9.2c0-0.5,0.2-0.7,0.7-0.7h0.6c0.5,0,0.7,0.2,0.7,0.7v1l-0.1,0.6h0c0.3-0.7,0.8-1.3,1.5-1.8
			c0.7-0.5,1.4-0.8,2.2-0.8c1.8,0,2.8,0.8,3.2,2.4h0c0.3-0.7,0.8-1.2,1.5-1.7c0.7-0.5,1.4-0.7,2.3-0.7c1.2,0,2.1,0.3,2.6,1
			c0.6,0.7,0.9,1.7,0.9,3.1v6.1c0,0.5-0.2,0.7-0.7,0.7h-0.7c-0.5,0-0.7-0.2-0.7-0.7v-5.7c0-0.4,0-0.8-0.1-1.1
			c-0.1-0.3-0.1-0.6-0.3-0.8s-0.3-0.5-0.6-0.6s-0.6-0.2-1-0.2c-0.6,0-1.2,0.2-1.7,0.6c-0.5,0.4-0.9,0.9-1.1,1.5s-0.4,1.3-0.4,2v4.2
			c0,0.5-0.2,0.7-0.7,0.7h-0.7c-0.4,0-0.7-0.2-0.7-0.7v-5.7c0-0.4,0-0.7-0.1-1c0-0.3-0.1-0.6-0.2-0.8s-0.3-0.5-0.6-0.6
			c-0.3-0.1-0.6-0.2-1-0.2c-0.6,0-1.2,0.2-1.7,0.6s-0.9,0.9-1.1,1.5s-0.4,1.3-0.4,1.9v4.2c0,0.5-0.2,0.7-0.7,0.7h-0.7
			C400.6,119.7,400.4,119.5,400.4,119z"/>
		<path d="M419.2,115.9v-6.1c0-0.5,0.2-0.7,0.7-0.7h0.6c0.5,0,0.7,0.2,0.7,0.7v5.6c0,0.4,0,0.7,0.1,1c0.1,0.3,0.1,0.6,0.3,0.8
			s0.3,0.5,0.6,0.6s0.6,0.2,1,0.2c0.7,0,1.3-0.2,1.9-0.6c0.5-0.4,0.9-0.9,1.2-1.5c0.3-0.6,0.4-1.3,0.4-2v-4.3c0-0.5,0.2-0.7,0.7-0.7
			h0.6c0.5,0,0.7,0.2,0.7,0.7v9.2c0,0.5-0.2,0.7-0.7,0.7h-0.6c-0.5,0-0.7-0.2-0.7-0.7v-1l0.1-0.6h0c-0.1,0.3-0.3,0.6-0.5,0.8
			c-0.2,0.3-0.5,0.5-0.8,0.8c-0.3,0.3-0.7,0.5-1.2,0.6c-0.5,0.2-0.9,0.2-1.4,0.2c-1.2,0-2.1-0.3-2.7-1
			C419.5,118.3,419.2,117.3,419.2,115.9z"/>
		<path d="M431.6,119v-9.2c0-0.5,0.2-0.7,0.7-0.7h0.6c0.5,0,0.7,0.2,0.7,0.7v0.9l-0.1,0.6h0c0.1-0.3,0.3-0.5,0.5-0.8
			c0.2-0.3,0.5-0.5,0.8-0.8s0.7-0.5,1.2-0.7c0.5-0.2,1-0.3,1.5-0.3c1.2,0,2.1,0.3,2.7,1c0.6,0.7,0.9,1.7,0.9,3.1v6.1
			c0,0.5-0.2,0.7-0.7,0.7h-0.7c-0.5,0-0.7-0.2-0.7-0.7v-5.6c0-0.4,0-0.8-0.1-1.1c-0.1-0.3-0.1-0.6-0.3-0.8c-0.1-0.3-0.3-0.5-0.6-0.6
			c-0.3-0.1-0.6-0.2-1-0.2c-1,0-1.9,0.4-2.5,1.1s-1,1.7-1,2.8v4.4c0,0.5-0.2,0.7-0.7,0.7h-0.7C431.9,119.7,431.6,119.5,431.6,119z"
			/>
		<path d="M444,106.3v-0.7c0-0.5,0.2-0.7,0.7-0.7h0.7c0.5,0,0.7,0.2,0.7,0.7v0.7c0,0.2-0.1,0.4-0.2,0.5c-0.1,0.1-0.3,0.2-0.5,0.2
			h-0.7C444.2,107,444,106.7,444,106.3z M444,119v-9.2c0-0.5,0.2-0.7,0.7-0.7h0.7c0.5,0,0.7,0.2,0.7,0.7v9.2c0,0.5-0.2,0.7-0.7,0.7
			h-0.7C444.3,119.7,444,119.5,444,119z"/>
		<path d="M448.1,110.1v-0.3c0-0.5,0.2-0.7,0.7-0.7h0.8v-2.3c0-0.5,0.2-0.7,0.7-0.7h0.6c0.5,0,0.7,0.2,0.7,0.7v2.3h1.9
			c0.5,0,0.7,0.2,0.7,0.7v0.3c0,0.5-0.2,0.7-0.7,0.7h-1.9v4.7c0,0.4,0,0.7,0.1,1s0.2,0.5,0.3,0.7c0.1,0.2,0.3,0.3,0.5,0.4
			s0.4,0.2,0.5,0.2c0.2,0,0.3,0.1,0.5,0.1c0.3,0,0.5,0.1,0.6,0.2s0.2,0.3,0.2,0.5v0.4c0,0.5-0.3,0.7-0.8,0.7c-1.1,0-2.1-0.3-2.8-1
			c-0.8-0.7-1.1-1.6-1.1-2.9v-5h-0.7C448.3,110.8,448.1,110.6,448.1,110.1z"/>
		<path d="M455.3,116.8c0-0.5,0.1-0.9,0.2-1.2c0.2-0.4,0.4-0.7,0.6-0.9c0.3-0.3,0.6-0.5,0.9-0.7c0.4-0.2,0.7-0.3,1.1-0.4
			c0.4-0.1,0.8-0.2,1.2-0.3c0.4-0.1,0.8-0.1,1.2-0.1c0.3,0,0.7,0,1.1,0h0.5v-0.3c0-1.6-0.8-2.3-2.3-2.3c-0.8,0-1.6,0.2-2.4,0.7
			c-0.1,0.1-0.3,0.1-0.4,0.1c-0.2,0-0.4-0.1-0.6-0.3l-0.2-0.3c-0.1-0.2-0.1-0.3-0.1-0.4c0-0.2,0.1-0.4,0.3-0.5
			c1-0.6,2.2-0.9,3.4-0.9c1.3,0,2.4,0.4,3.1,1.1s1.1,1.7,1.1,3.1v6c0,0.5-0.2,0.7-0.7,0.7H463c-0.5,0-0.7-0.2-0.7-0.7v-0.6
			c0-0.1,0-0.2,0-0.3c0-0.1,0-0.2,0-0.2l0-0.1h-0.1c0,0.1-0.1,0.1-0.1,0.2c-0.1,0.1-0.2,0.3-0.4,0.5c-0.2,0.3-0.4,0.5-0.7,0.7
			c-0.2,0.2-0.6,0.4-1,0.5c-0.4,0.2-0.8,0.2-1.3,0.2c-1,0-1.8-0.3-2.5-0.9C455.7,118.5,455.3,117.8,455.3,116.8z M457.4,116.6
			c0,0.5,0.2,0.9,0.5,1.2c0.4,0.3,0.8,0.5,1.5,0.5c0.6,0,1.1-0.2,1.5-0.5s0.8-0.8,1-1.3c0.2-0.5,0.3-1,0.3-1.6v-0.5h-0.5
			C458.8,114.5,457.4,115.2,457.4,116.6z"/>
		<path d="M466.5,117.9l0.2-0.3c0.1-0.2,0.3-0.3,0.4-0.3s0.3,0,0.5,0.2c0.9,0.6,1.7,0.9,2.6,0.9c0.5,0,1-0.1,1.3-0.4
			c0.3-0.3,0.5-0.6,0.5-1c0-0.3-0.1-0.5-0.3-0.7c-0.2-0.2-0.5-0.4-0.8-0.5c-0.3-0.1-0.7-0.3-1.1-0.4s-0.8-0.3-1.2-0.5
			c-0.4-0.2-0.8-0.4-1.1-0.6s-0.6-0.5-0.8-0.9c-0.2-0.4-0.3-0.8-0.3-1.3c0-1,0.4-1.7,1.1-2.3c0.7-0.5,1.7-0.8,2.8-0.8
			c1.1,0,2.1,0.3,3,0.8c0.2,0.1,0.3,0.2,0.3,0.4c0,0.2,0,0.3-0.1,0.5l-0.2,0.3c-0.1,0.2-0.3,0.3-0.5,0.3c-0.1,0-0.3,0-0.4-0.1
			c-0.7-0.4-1.4-0.6-2.2-0.6c-0.5,0-1,0.1-1.3,0.3c-0.3,0.2-0.5,0.6-0.5,1c0,0.3,0.1,0.5,0.3,0.8s0.5,0.4,0.8,0.5
			c0.3,0.1,0.7,0.3,1.1,0.4s0.8,0.3,1.2,0.5s0.8,0.4,1.1,0.6c0.3,0.2,0.6,0.5,0.8,0.9c0.2,0.4,0.3,0.8,0.3,1.3
			c0,0.9-0.4,1.7-1.1,2.2c-0.7,0.6-1.6,0.9-2.8,0.9c-1.4,0-2.6-0.4-3.6-1.1c-0.2-0.1-0.3-0.3-0.3-0.5
			C466.3,118.2,466.4,118,466.5,117.9z"/>
	</g>
	<g class="st6">
		<path d="M42.7,302.8v-13.4c0-0.5,0.2-0.7,0.7-0.7h4.7c1.4,0,2.5,0.4,3.3,1.3c0.9,0.9,1.3,2,1.3,3.4s-0.4,2.5-1.3,3.4
			s-2,1.3-3.3,1.3h-3.4v4.8c0,0.5-0.2,0.7-0.7,0.7h-0.7C43,303.4,42.7,303.2,42.7,302.8z M44.8,296.2h3c0.9,0,1.6-0.3,2.1-0.8
			c0.5-0.5,0.8-1.2,0.8-2.1c0-0.9-0.3-1.6-0.8-2.1c-0.5-0.5-1.2-0.8-2.1-0.8h-3V296.2z"/>
		<path d="M54,298.1c0-1.7,0.5-3,1.5-4c1-1,2.3-1.5,3.8-1.5c1.4,0,2.6,0.5,3.4,1.4c0.8,0.9,1.2,2.2,1.2,3.7c0,0.2-0.1,0.4-0.2,0.5
			c-0.1,0.1-0.3,0.2-0.5,0.2H56c0.1,1.1,0.4,2,1.1,2.6c0.7,0.6,1.5,1,2.5,1c0.9,0,1.8-0.3,2.5-0.8c0.2-0.1,0.3-0.1,0.4-0.1
			c0.2,0,0.4,0.1,0.5,0.3l0.2,0.3c0.1,0.2,0.1,0.4,0.1,0.5c0,0.2-0.1,0.3-0.3,0.4c-1.1,0.8-2.3,1.1-3.6,1.1c-1.1,0-2.1-0.2-2.9-0.7
			c-0.9-0.5-1.5-1.2-2-2C54.2,300.1,54,299.2,54,298.1z M56.1,297h5.7c0-0.9-0.3-1.6-0.8-2.1s-1.1-0.7-1.8-0.7c-0.8,0-1.5,0.3-2,0.8
			C56.6,295.4,56.3,296.1,56.1,297z"/>
		<path d="M66.1,302.8v-9.2c0-0.5,0.2-0.7,0.7-0.7h0.6c0.5,0,0.7,0.2,0.7,0.7v1l-0.1,0.6h0c0.3-0.7,0.8-1.3,1.5-1.8
			c0.7-0.5,1.4-0.8,2.2-0.8c1.8,0,2.8,0.8,3.2,2.4h0c0.3-0.7,0.8-1.2,1.5-1.7c0.7-0.5,1.4-0.7,2.3-0.7c1.2,0,2.1,0.3,2.6,1
			c0.6,0.7,0.9,1.7,0.9,3.1v6.1c0,0.5-0.2,0.7-0.7,0.7h-0.7c-0.5,0-0.7-0.2-0.7-0.7v-5.7c0-0.4,0-0.8-0.1-1.1
			c-0.1-0.3-0.1-0.6-0.3-0.8c-0.1-0.3-0.3-0.5-0.6-0.6s-0.6-0.2-1-0.2c-0.6,0-1.2,0.2-1.7,0.6c-0.5,0.4-0.9,0.9-1.1,1.5
			s-0.4,1.3-0.4,2v4.2c0,0.5-0.2,0.7-0.7,0.7h-0.7c-0.4,0-0.7-0.2-0.7-0.7v-5.7c0-0.4,0-0.7-0.1-1c0-0.3-0.1-0.6-0.2-0.8
			c-0.1-0.3-0.3-0.5-0.6-0.6s-0.6-0.2-1-0.2c-0.6,0-1.2,0.2-1.7,0.6s-0.9,0.9-1.1,1.5s-0.4,1.3-0.4,1.9v4.2c0,0.5-0.2,0.7-0.7,0.7
			h-0.7C66.3,303.4,66.1,303.2,66.1,302.8z"/>
		<path d="M84.4,298.1c0-1.7,0.5-3,1.5-4c1-1,2.3-1.5,3.8-1.5c1.4,0,2.6,0.5,3.4,1.4c0.8,0.9,1.2,2.2,1.2,3.7c0,0.2-0.1,0.4-0.2,0.5
			c-0.1,0.1-0.3,0.2-0.5,0.2h-7.1c0.1,1.1,0.4,2,1.1,2.6c0.7,0.6,1.5,1,2.5,1c0.9,0,1.8-0.3,2.5-0.8c0.2-0.1,0.3-0.1,0.4-0.1
			c0.2,0,0.4,0.1,0.5,0.3l0.2,0.3c0.1,0.2,0.1,0.4,0.1,0.5c0,0.2-0.1,0.3-0.3,0.4c-1.1,0.8-2.3,1.1-3.6,1.1c-1.1,0-2.1-0.2-2.9-0.7
			c-0.9-0.5-1.5-1.2-2-2C84.6,300.1,84.4,299.2,84.4,298.1z M86.5,297h5.7c0-0.9-0.3-1.6-0.8-2.1s-1.1-0.7-1.8-0.7
			c-0.8,0-1.5,0.3-2,0.8C87,295.4,86.6,296.1,86.5,297z"/>
		<path d="M96.5,302.8v-9.2c0-0.5,0.2-0.7,0.7-0.7h0.6c0.5,0,0.7,0.2,0.7,0.7v1.2l-0.1,0.8h0c0.3-0.8,0.7-1.4,1.3-2s1.2-0.8,2-0.8
			c0.5,0,0.7,0.2,0.7,0.7v0.6c0,0.5-0.3,0.7-0.8,0.7c-0.5,0-1,0.1-1.4,0.4c-0.4,0.3-0.7,0.6-1,1c-0.2,0.4-0.4,0.9-0.6,1.4
			s-0.2,1-0.2,1.6v3.7c0,0.5-0.2,0.7-0.7,0.7h-0.7C96.7,303.4,96.5,303.2,96.5,302.8z"/>
		<path d="M103.9,290v-0.7c0-0.5,0.2-0.7,0.7-0.7h0.7c0.5,0,0.7,0.2,0.7,0.7v0.7c0,0.2-0.1,0.4-0.2,0.5c-0.1,0.1-0.3,0.2-0.5,0.2
			h-0.7C104.2,290.7,103.9,290.5,103.9,290z M103.9,302.8v-9.2c0-0.5,0.2-0.7,0.7-0.7h0.7c0.5,0,0.7,0.2,0.7,0.7v9.2
			c0,0.5-0.2,0.7-0.7,0.7h-0.7C104.2,303.4,103.9,303.2,103.9,302.8z"/>
		<path d="M108.9,302.8v-9.2c0-0.5,0.2-0.7,0.7-0.7h0.6c0.5,0,0.7,0.2,0.7,0.7v0.9l-0.1,0.6h0c0.1-0.3,0.3-0.5,0.5-0.8
			c0.2-0.3,0.5-0.5,0.8-0.8c0.3-0.3,0.7-0.5,1.2-0.7c0.5-0.2,1-0.3,1.5-0.3c1.2,0,2.1,0.3,2.7,1c0.6,0.7,0.9,1.7,0.9,3.1v6.1
			c0,0.5-0.2,0.7-0.7,0.7h-0.7c-0.5,0-0.7-0.2-0.7-0.7v-5.6c0-0.4,0-0.8-0.1-1.1s-0.1-0.6-0.3-0.8c-0.1-0.3-0.3-0.5-0.6-0.6
			c-0.3-0.1-0.6-0.2-1-0.2c-1,0-1.9,0.4-2.5,1.1s-1,1.7-1,2.8v4.4c0,0.5-0.2,0.7-0.7,0.7h-0.7C109.2,303.4,108.9,303.2,108.9,302.8z
			"/>
		<path d="M120.3,293.9v-0.3c0-0.5,0.2-0.7,0.7-0.7h0.8v-2.3c0-0.5,0.2-0.7,0.7-0.7h0.6c0.5,0,0.7,0.2,0.7,0.7v2.3h1.9
			c0.5,0,0.7,0.2,0.7,0.7v0.3c0,0.5-0.2,0.7-0.7,0.7h-1.9v4.7c0,0.4,0,0.7,0.1,1c0.1,0.3,0.2,0.5,0.3,0.7c0.1,0.2,0.3,0.3,0.5,0.4
			c0.2,0.1,0.4,0.2,0.5,0.2c0.2,0,0.3,0.1,0.5,0.1c0.3,0,0.5,0.1,0.6,0.2s0.2,0.3,0.2,0.5v0.4c0,0.5-0.3,0.7-0.8,0.7
			c-1.1,0-2.1-0.3-2.8-1c-0.8-0.7-1.1-1.6-1.1-2.9v-5H121C120.5,294.6,120.3,294.4,120.3,293.9z"/>
		<path d="M127.5,300.5c0-0.5,0.1-0.9,0.2-1.2s0.4-0.7,0.6-0.9c0.3-0.3,0.6-0.5,0.9-0.7c0.4-0.2,0.7-0.3,1.1-0.4
			c0.4-0.1,0.8-0.2,1.2-0.3c0.4-0.1,0.8-0.1,1.2-0.1c0.3,0,0.7,0,1.1,0h0.5v-0.3c0-1.6-0.8-2.3-2.3-2.3c-0.8,0-1.6,0.2-2.4,0.7
			c-0.1,0.1-0.3,0.1-0.4,0.1c-0.2,0-0.4-0.1-0.6-0.3l-0.2-0.3c-0.1-0.2-0.1-0.3-0.1-0.4c0-0.2,0.1-0.4,0.3-0.5
			c1-0.6,2.2-0.9,3.4-0.9c1.3,0,2.4,0.4,3.1,1.1s1.1,1.7,1.1,3.1v6c0,0.5-0.2,0.7-0.7,0.7h-0.5c-0.5,0-0.7-0.2-0.7-0.7v-0.6
			c0-0.1,0-0.2,0-0.3s0-0.2,0-0.2l0-0.1h-0.1c0,0.1-0.1,0.1-0.1,0.2c-0.1,0.1-0.2,0.3-0.4,0.5c-0.2,0.3-0.4,0.5-0.7,0.7
			c-0.2,0.2-0.6,0.4-1,0.5c-0.4,0.2-0.8,0.2-1.3,0.2c-1,0-1.8-0.3-2.5-0.9C127.9,302.3,127.5,301.5,127.5,300.5z M129.6,300.4
			c0,0.5,0.2,0.9,0.5,1.2c0.4,0.3,0.8,0.5,1.5,0.5c0.6,0,1.1-0.2,1.5-0.5s0.8-0.8,1-1.3c0.2-0.5,0.3-1,0.3-1.6v-0.5h-0.5
			C131,298.2,129.6,299,129.6,300.4z"/>
		<path d="M139.3,302.8v-13.4c0-0.5,0.2-0.7,0.7-0.7h0.6c0.5,0,0.7,0.2,0.7,0.7v4.8c0,0.2,0,0.3,0,0.4c0,0.1,0,0.3,0,0.3l0,0.1h0
			c0.1-0.3,0.3-0.5,0.5-0.8c0.2-0.3,0.5-0.5,0.8-0.8c0.3-0.3,0.7-0.5,1.2-0.6c0.5-0.2,0.9-0.2,1.4-0.2c1.2,0,2.2,0.3,2.8,1
			c0.6,0.7,0.9,1.7,0.9,3.1v6.1c0,0.5-0.2,0.7-0.7,0.7h-0.7c-0.5,0-0.7-0.2-0.7-0.7v-5.6c0-0.4,0-0.8-0.1-1.1s-0.2-0.6-0.3-0.8
			s-0.3-0.5-0.6-0.6c-0.3-0.1-0.6-0.2-1-0.2c-1,0-1.9,0.4-2.5,1.1s-1,1.7-1,2.8v4.3c0,0.5-0.2,0.7-0.7,0.7H140
			C139.5,303.4,139.3,303.2,139.3,302.8z"/>
	</g>
	<g class="st6">
		<path d="M399.4,302.8v-13.4c0-0.5,0.2-0.7,0.7-0.7h4.5c1.3,0,2.3,0.3,3.1,1c0.8,0.7,1.2,1.6,1.2,2.8c0,0.7-0.2,1.4-0.5,1.9
			c-0.3,0.6-0.8,1-1.3,1.3v0c0.8,0.2,1.3,0.7,1.8,1.3c0.4,0.7,0.6,1.4,0.6,2.3c0,0.7-0.1,1.3-0.4,1.8c-0.3,0.5-0.6,1-1,1.3
			c-0.4,0.3-0.9,0.6-1.5,0.8c-0.6,0.2-1.2,0.3-1.9,0.3h-4.6C399.6,303.4,399.4,303.2,399.4,302.8z M401.4,294.9h3.1
			c0.7,0,1.2-0.2,1.6-0.6c0.4-0.4,0.6-1,0.6-1.6s-0.2-1.2-0.6-1.6s-0.9-0.6-1.6-0.6h-3.1V294.9z M401.4,301.6h3.3
			c0.8,0,1.4-0.2,1.9-0.7c0.5-0.5,0.7-1.1,0.7-1.8s-0.2-1.4-0.7-1.8c-0.5-0.5-1.1-0.7-1.9-0.7h-3.3V301.6z"/>
		<path d="M411.8,290v-0.7c0-0.5,0.2-0.7,0.7-0.7h0.7c0.5,0,0.7,0.2,0.7,0.7v0.7c0,0.2-0.1,0.4-0.2,0.5s-0.3,0.2-0.5,0.2h-0.7
			C412,290.7,411.8,290.5,411.8,290z M411.8,302.8v-9.2c0-0.5,0.2-0.7,0.7-0.7h0.7c0.5,0,0.7,0.2,0.7,0.7v9.2c0,0.5-0.2,0.7-0.7,0.7
			h-0.7C412,303.4,411.8,303.2,411.8,302.8z"/>
		<path d="M416.2,301.6l0.2-0.3c0.1-0.2,0.3-0.3,0.4-0.3s0.3,0,0.5,0.2c0.9,0.6,1.7,0.9,2.6,0.9c0.5,0,1-0.1,1.3-0.4
			c0.3-0.3,0.5-0.6,0.5-1c0-0.3-0.1-0.5-0.3-0.7c-0.2-0.2-0.5-0.4-0.8-0.5c-0.3-0.1-0.7-0.3-1.1-0.4c-0.4-0.1-0.8-0.3-1.2-0.5
			s-0.8-0.4-1.1-0.6c-0.3-0.2-0.6-0.5-0.8-0.9s-0.3-0.8-0.3-1.3c0-1,0.4-1.7,1.1-2.3c0.7-0.5,1.7-0.8,2.8-0.8c1.1,0,2.1,0.3,3,0.8
			c0.2,0.1,0.3,0.2,0.3,0.4c0,0.2,0,0.3-0.1,0.5l-0.2,0.3c-0.1,0.2-0.3,0.3-0.5,0.3c-0.1,0-0.3,0-0.4-0.1c-0.7-0.4-1.4-0.6-2.2-0.6
			c-0.5,0-1,0.1-1.3,0.3c-0.3,0.2-0.5,0.6-0.5,1c0,0.3,0.1,0.5,0.3,0.8c0.2,0.2,0.5,0.4,0.8,0.5c0.3,0.1,0.7,0.3,1.1,0.4
			s0.8,0.3,1.2,0.5s0.8,0.4,1.1,0.6s0.6,0.5,0.8,0.9c0.2,0.4,0.3,0.8,0.3,1.3c0,0.9-0.4,1.7-1.1,2.2s-1.6,0.9-2.8,0.9
			c-1.4,0-2.6-0.4-3.6-1.1c-0.2-0.1-0.3-0.3-0.3-0.5C416.1,301.9,416.1,301.8,416.2,301.6z"/>
		<path d="M426,302.8v-9.2c0-0.5,0.2-0.7,0.7-0.7h0.6c0.5,0,0.7,0.2,0.7,0.7v0.9l-0.1,0.6h0c0.1-0.3,0.3-0.5,0.5-0.8
			c0.2-0.3,0.5-0.5,0.8-0.8c0.3-0.3,0.7-0.5,1.2-0.7c0.5-0.2,1-0.3,1.5-0.3c1.2,0,2.1,0.3,2.7,1c0.6,0.7,0.9,1.7,0.9,3.1v6.1
			c0,0.5-0.2,0.7-0.7,0.7h-0.7c-0.5,0-0.7-0.2-0.7-0.7v-5.6c0-0.4,0-0.8-0.1-1.1c-0.1-0.3-0.1-0.6-0.3-0.8s-0.3-0.5-0.6-0.6
			c-0.3-0.1-0.6-0.2-1-0.2c-1,0-1.9,0.4-2.5,1.1s-1,1.7-1,2.8v4.4c0,0.5-0.2,0.7-0.7,0.7h-0.7C426.2,303.4,426,303.2,426,302.8z"/>
		<path d="M438.4,290v-0.7c0-0.5,0.2-0.7,0.7-0.7h0.7c0.5,0,0.7,0.2,0.7,0.7v0.7c0,0.2-0.1,0.4-0.2,0.5s-0.3,0.2-0.5,0.2h-0.7
			C438.6,290.7,438.4,290.5,438.4,290z M438.4,302.8v-9.2c0-0.5,0.2-0.7,0.7-0.7h0.7c0.5,0,0.7,0.2,0.7,0.7v9.2
			c0,0.5-0.2,0.7-0.7,0.7h-0.7C438.6,303.4,438.4,303.2,438.4,302.8z"/>
		<path d="M442.8,301.6l0.2-0.3c0.1-0.2,0.3-0.3,0.4-0.3s0.3,0,0.5,0.2c0.9,0.6,1.7,0.9,2.6,0.9c0.5,0,1-0.1,1.3-0.4
			c0.3-0.3,0.5-0.6,0.5-1c0-0.3-0.1-0.5-0.3-0.7c-0.2-0.2-0.5-0.4-0.8-0.5c-0.3-0.1-0.7-0.3-1.1-0.4c-0.4-0.1-0.8-0.3-1.2-0.5
			s-0.8-0.4-1.1-0.6c-0.3-0.2-0.6-0.5-0.8-0.9s-0.3-0.8-0.3-1.3c0-1,0.4-1.7,1.1-2.3c0.7-0.5,1.7-0.8,2.8-0.8c1.1,0,2.1,0.3,3,0.8
			c0.2,0.1,0.3,0.2,0.3,0.4c0,0.2,0,0.3-0.1,0.5l-0.2,0.3c-0.1,0.2-0.3,0.3-0.5,0.3c-0.1,0-0.3,0-0.4-0.1c-0.7-0.4-1.4-0.6-2.2-0.6
			c-0.5,0-1,0.1-1.3,0.3c-0.3,0.2-0.5,0.6-0.5,1c0,0.3,0.1,0.5,0.3,0.8c0.2,0.2,0.5,0.4,0.8,0.5c0.3,0.1,0.7,0.3,1.1,0.4
			s0.8,0.3,1.2,0.5s0.8,0.4,1.1,0.6s0.6,0.5,0.8,0.9c0.2,0.4,0.3,0.8,0.3,1.3c0,0.9-0.4,1.7-1.1,2.2s-1.6,0.9-2.8,0.9
			c-1.4,0-2.6-0.4-3.6-1.1c-0.2-0.1-0.3-0.3-0.3-0.5C442.7,301.9,442.7,301.8,442.8,301.6z"/>
	</g>
</g>
</svg>
