<?xml version="1.0" encoding="utf-8"?>
<!-- Generator: Adobe Illustrator 19.0.0, SVG Export Plug-In . SVG Version: 6.00 Build 0)  -->
<svg version="1.1" id="Layer_1" xmlns="http://www.w3.org/2000/svg" xmlns:xlink="http://www.w3.org/1999/xlink" x="0px" y="0px"
	 viewBox="0 0 220 220" enable-background="new 0 0 220 220" xml:space="preserve">
<g id="XMLID_34_">
	<g id="XMLID_533_">
		<path id="XMLID_534_" fill="#0277BD" d="M38.3,76.8L11,40.6h-0.2v36.2H0.3V5h10.5v35.6H11L38.3,5h12.9l-28,35.6l28,36.2H38.3z"/>
		<path id="XMLID_536_" fill="#0277BD" d="M58.8,76.8V5h10.5v71.8H58.8z"/>
		<path id="XMLID_538_" fill="#0277BD" d="M123.1,76.8L95.9,40.6h-0.2v36.2H85.2V5h10.5v35.6h0.2L123.1,5H136l-28,35.6l28,36.2
			H123.1z"/>
		<path id="XMLID_540_" fill="#0277BD" d="M209.4,76.8V16.2h-0.3l-24.2,60.6h-6.3l-24.2-60.6h-0.2v60.6h-10.5V5h16.5l21.5,55
			l21.6-55h16.5v71.8H209.4z"/>
	</g>
	<g id="XMLID_542_" opacity="0.54">
		<path id="XMLID_543_" d="M85.5,100.2h1.9V111h0.1l8.6-10.8h2.4l-7.4,9.2l7.4,9.6h-2.4l-6.3-8.1l-2.4,3v5.2h-1.9V100.2z"/>
		<path id="XMLID_545_" d="M99.5,112.1c0-1.1,0.2-2.1,0.6-3c0.4-0.9,1-1.7,1.6-2.3c0.7-0.7,1.4-1.2,2.3-1.5c0.9-0.4,1.8-0.5,2.7-0.5
			c1,0,2,0.2,2.9,0.6c0.9,0.4,1.7,0.9,2.3,1.6c0.7,0.7,1.2,1.4,1.5,2.3c0.4,0.9,0.6,1.8,0.6,2.7c0,0.9-0.2,1.9-0.6,2.7
			c-0.4,0.9-0.9,1.7-1.5,2.3c-0.6,0.7-1.4,1.2-2.3,1.6c-0.9,0.4-1.9,0.6-2.9,0.6c-1,0-2-0.2-2.8-0.6c-0.9-0.4-1.6-0.9-2.3-1.6
			c-0.7-0.7-1.2-1.4-1.5-2.3C99.7,114,99.5,113.1,99.5,112.1z M101.3,112.1c0,0.8,0.2,1.6,0.5,2.2c0.3,0.7,0.7,1.3,1.2,1.8
			c0.5,0.5,1.1,0.9,1.8,1.2c0.7,0.3,1.3,0.4,2.1,0.4c0.7,0,1.3-0.1,2-0.4c0.7-0.3,1.2-0.6,1.8-1.1c0.5-0.5,0.9-1.1,1.3-1.8
			c0.3-0.7,0.5-1.5,0.5-2.4c0-0.9-0.2-1.7-0.5-2.4c-0.3-0.7-0.8-1.3-1.3-1.8c-0.5-0.5-1.1-0.8-1.8-1.1c-0.7-0.2-1.3-0.4-1.9-0.4
			c-0.6,0-1.3,0.1-1.9,0.4c-0.6,0.3-1.2,0.6-1.8,1.1c-0.5,0.5-1,1.1-1.3,1.8C101.5,110.4,101.3,111.2,101.3,112.1z"/>
		<path id="XMLID_548_" d="M116.7,105.1h1.8v2.4h0.1c0.4-0.6,0.8-1,1.3-1.4c0.5-0.4,0.9-0.6,1.4-0.9c0.5-0.2,1-0.3,1.4-0.4
			c0.5-0.1,0.9-0.1,1.3-0.1c1.1,0,2.2,0.2,3.1,0.6c0.9,0.4,1.7,0.9,2.3,1.6c0.6,0.7,1.1,1.5,1.5,2.3c0.4,0.9,0.5,1.8,0.5,2.7
			c0,1-0.2,1.9-0.6,2.8c-0.4,0.9-0.9,1.7-1.5,2.3c-0.7,0.7-1.4,1.2-2.4,1.6c-0.9,0.4-1.9,0.6-3,0.6c-0.4,0-0.8,0-1.2-0.1
			c-0.5-0.1-0.9-0.2-1.4-0.4c-0.5-0.2-1-0.5-1.4-0.8c-0.5-0.4-0.9-0.8-1.3-1.4h-0.1v7.3h-1.8V105.1z M129.6,112.1
			c0-0.9-0.2-1.7-0.5-2.4c-0.3-0.7-0.7-1.3-1.2-1.8c-0.5-0.5-1.1-0.9-1.8-1.1c-0.7-0.3-1.4-0.4-2.2-0.4c-0.8,0-1.5,0.2-2.2,0.5
			c-0.7,0.3-1.3,0.7-1.8,1.2c-0.5,0.5-0.9,1.1-1.2,1.8c-0.3,0.7-0.4,1.4-0.4,2.2c0,0.8,0.1,1.6,0.4,2.3c0.3,0.7,0.7,1.3,1.2,1.8
			c0.5,0.5,1.1,0.9,1.8,1.2c0.7,0.3,1.4,0.4,2.1,0.4c0.8,0,1.6-0.1,2.3-0.4c0.7-0.3,1.3-0.7,1.8-1.2c0.5-0.5,0.9-1.1,1.2-1.8
			C129.5,113.6,129.6,112.9,129.6,112.1z"/>
		<path id="XMLID_551_" d="M135.2,112.7c0,0.7,0.2,1.3,0.5,1.9c0.3,0.6,0.7,1.1,1.2,1.6c0.5,0.5,1.1,0.8,1.7,1.1
			c0.6,0.3,1.3,0.4,2,0.4c0.6,0,1.2-0.1,1.8-0.3c0.5-0.2,1-0.4,1.4-0.7c0.4-0.3,0.8-0.6,1.1-1c0.3-0.4,0.5-0.8,0.7-1.2h1.9
			c-0.2,0.7-0.6,1.3-1,1.9c-0.4,0.6-1,1.1-1.6,1.5c-0.6,0.4-1.3,0.8-2,1c-0.7,0.2-1.5,0.4-2.3,0.4c-1,0-1.9-0.2-2.8-0.6
			c-0.9-0.4-1.6-0.9-2.3-1.5c-0.7-0.7-1.2-1.4-1.6-2.3c-0.4-0.9-0.6-1.8-0.6-2.9c0-1,0.2-1.9,0.6-2.8c0.4-0.9,0.9-1.6,1.5-2.3
			c0.7-0.7,1.4-1.2,2.3-1.6c0.9-0.4,1.8-0.6,2.8-0.6c0.8,0,1.5,0.1,2.1,0.3c0.7,0.2,1.2,0.5,1.8,0.8c0.5,0.3,1,0.7,1.4,1.1
			c0.4,0.4,0.7,0.8,1,1.3c0.4,0.7,0.7,1.3,0.9,2c0.2,0.7,0.2,1.3,0.2,1.9c0,0.1,0,0.2,0,0.3c0,0.1,0,0.2,0,0.3H135.2z M146,111.1
			c-0.1-0.8-0.4-1.5-0.8-2.1c-0.4-0.6-0.8-1.1-1.3-1.5c-0.5-0.4-1-0.7-1.6-0.9c-0.6-0.2-1.1-0.3-1.7-0.3c-0.5,0-1.1,0.1-1.7,0.3
			c-0.6,0.2-1.1,0.5-1.6,0.9c-0.5,0.4-1,0.9-1.3,1.5c-0.4,0.6-0.6,1.3-0.7,2.1H146z"/>
		<path id="XMLID_554_" d="M150.5,105.1h1.8v2h0.1c0.2-0.5,0.5-0.9,0.7-1.2c0.3-0.3,0.6-0.5,1-0.7c0.3-0.2,0.7-0.3,1.1-0.3
			c0.4-0.1,0.8-0.1,1.1-0.1v1.9c-0.6,0.1-1.2,0.2-1.7,0.4c-0.5,0.2-0.9,0.5-1.3,1c-0.3,0.4-0.5,0.8-0.7,1.3c-0.2,0.5-0.3,1-0.3,1.6
			v8.1h-1.8V105.1z"/>
		<path id="XMLID_556_" d="M172.3,119h-1.8v-2.4h-0.1c-0.4,0.6-0.8,1-1.3,1.4c-0.5,0.4-1,0.6-1.4,0.8c-0.5,0.2-1,0.3-1.4,0.4
			c-0.5,0.1-0.9,0.1-1.2,0.1c-1.1,0-2.1-0.2-3-0.6c-0.9-0.4-1.7-0.9-2.4-1.6c-0.7-0.7-1.2-1.4-1.5-2.3c-0.4-0.9-0.5-1.8-0.5-2.8
			c0-0.9,0.2-1.8,0.5-2.7c0.4-0.9,0.9-1.6,1.5-2.3c0.6-0.7,1.4-1.2,2.3-1.6c0.9-0.4,1.9-0.6,3.1-0.6c0.4,0,0.8,0,1.3,0.1
			c0.5,0.1,1,0.2,1.4,0.4c0.5,0.2,1,0.5,1.4,0.9c0.5,0.4,0.9,0.8,1.3,1.4h0.1v-2.4h1.8V119z M159.4,112.1c0,0.8,0.1,1.5,0.4,2.2
			c0.3,0.7,0.7,1.3,1.2,1.8c0.5,0.5,1.1,0.9,1.8,1.2c0.7,0.3,1.5,0.4,2.3,0.4c0.7,0,1.5-0.1,2.1-0.4c0.7-0.3,1.3-0.7,1.8-1.2
			c0.5-0.5,0.9-1.1,1.2-1.8c0.3-0.7,0.4-1.4,0.4-2.3c0-0.8-0.1-1.5-0.4-2.2c-0.3-0.7-0.7-1.3-1.2-1.8c-0.5-0.5-1.1-0.9-1.8-1.2
			c-0.7-0.3-1.4-0.5-2.2-0.5c-0.8,0-1.5,0.1-2.2,0.4c-0.7,0.3-1.3,0.7-1.8,1.1c-0.5,0.5-0.9,1.1-1.2,1.8
			C159.5,110.4,159.4,111.2,159.4,112.1z"/>
		<path id="XMLID_559_" d="M176.2,114.9c0,0.7,0.1,1.2,0.3,1.6c0.2,0.4,0.4,0.7,0.7,0.8c0.3,0.2,0.5,0.3,0.8,0.4
			c0.3,0.1,0.5,0.1,0.6,0.1c0.8,0,1.5-0.2,1.9-0.7c0.4-0.4,0.7-1.1,0.7-1.8c0-0.5-0.1-0.9-0.3-1.2c-0.2-0.3-0.4-0.6-0.7-0.8
			c-0.3-0.2-0.6-0.4-0.9-0.5c-0.3-0.1-0.6-0.2-0.9-0.3c-0.4-0.1-0.7-0.3-1.2-0.4c-0.4-0.2-0.8-0.4-1.2-0.7c-0.4-0.3-0.7-0.7-0.9-1.1
			c-0.3-0.4-0.4-1-0.4-1.6c0-0.5,0.1-1,0.3-1.4c0.2-0.5,0.4-0.9,0.8-1.2c0.3-0.4,0.8-0.6,1.2-0.9c0.5-0.2,1.1-0.3,1.7-0.3
			c0.5,0,1,0.1,1.5,0.3c0.5,0.2,0.9,0.4,1.2,0.8c0.3,0.3,0.6,0.7,0.8,1.2c0.2,0.5,0.3,1,0.3,1.5v0.1h-1.8c0-0.4-0.1-0.8-0.3-1.1
			c-0.1-0.3-0.3-0.5-0.5-0.7c-0.2-0.2-0.4-0.3-0.6-0.4c-0.2-0.1-0.4-0.1-0.6-0.1c-0.4,0-0.7,0.1-0.9,0.2c-0.3,0.1-0.5,0.3-0.7,0.5
			c-0.2,0.2-0.3,0.4-0.4,0.7c-0.1,0.2-0.1,0.5-0.1,0.7c0,0.4,0.1,0.7,0.2,0.9c0.2,0.3,0.4,0.5,0.6,0.6c0.3,0.2,0.5,0.3,0.8,0.4
			c0.3,0.1,0.6,0.2,0.8,0.3c0.4,0.1,0.8,0.3,1.3,0.5c0.5,0.2,0.9,0.5,1.3,0.8c0.4,0.3,0.7,0.7,1,1.2c0.3,0.5,0.4,1.1,0.4,1.8v0.1
			c0,0.6-0.1,1.1-0.3,1.7c-0.2,0.5-0.4,1-0.8,1.3c-0.4,0.4-0.8,0.7-1.4,0.9c-0.5,0.2-1.2,0.3-1.9,0.3c-0.5,0-1-0.1-1.5-0.2
			c-0.5-0.2-1-0.4-1.4-0.8c-0.4-0.3-0.8-0.8-1-1.3c-0.3-0.5-0.4-1.2-0.4-2v-0.2H176.2z"/>
		<path id="XMLID_561_" d="M185.3,100.2h1.8v3.2h-1.8V100.2z M185.3,105.1h1.8V119h-1.8V105.1z"/>
		<path id="XMLID_564_" d="M85.4,130.7h1.9v18.8h-1.9V130.7z"/>
		<path id="XMLID_566_" d="M90.9,135.6h1.8v1.8h0.1c0.1-0.2,0.3-0.4,0.6-0.7c0.2-0.3,0.5-0.5,0.9-0.7c0.4-0.2,0.8-0.4,1.2-0.5
			c0.5-0.1,1-0.2,1.6-0.2c0.9,0,1.6,0.1,2.4,0.4c0.7,0.2,1.4,0.7,2,1.3c0.5,0.5,0.9,1.2,1.3,2c0.3,0.8,0.5,1.8,0.5,2.9v7.6h-1.8
			v-7.6c0-0.9-0.1-1.7-0.4-2.3c-0.2-0.6-0.6-1.1-1-1.5c-0.5-0.5-1-0.8-1.6-1c-0.6-0.2-1-0.2-1.4-0.2c-0.4,0-0.9,0.1-1.4,0.2
			c-0.6,0.2-1.1,0.5-1.6,1c-0.4,0.4-0.7,0.8-0.9,1.5c-0.2,0.6-0.4,1.4-0.4,2.2v7.8h-1.8V135.6z"/>
		<path id="XMLID_568_" d="M120.4,149.4h-1.8V147h-0.1c-0.4,0.6-0.8,1-1.3,1.4c-0.5,0.4-0.9,0.6-1.4,0.8c-0.5,0.2-1,0.3-1.4,0.4
			c-0.5,0.1-0.9,0.1-1.3,0.1c-1.1,0-2.1-0.2-3-0.6c-0.9-0.4-1.7-0.9-2.4-1.6c-0.7-0.7-1.2-1.4-1.5-2.3c-0.4-0.9-0.5-1.8-0.5-2.8
			c0-0.9,0.2-1.8,0.5-2.7c0.4-0.9,0.9-1.6,1.5-2.3c0.6-0.7,1.4-1.2,2.3-1.6c0.9-0.4,1.9-0.6,3.1-0.6c0.4,0,0.8,0,1.3,0.1
			c0.5,0.1,1,0.2,1.4,0.4c0.5,0.2,1,0.5,1.4,0.8c0.5,0.4,0.9,0.8,1.3,1.3h0.1v-7.3h1.8V149.4z M107.5,142.5c0,0.8,0.1,1.5,0.4,2.2
			c0.3,0.7,0.7,1.3,1.2,1.8c0.5,0.5,1.1,0.9,1.8,1.2c0.7,0.3,1.5,0.4,2.3,0.4c0.7,0,1.5-0.1,2.1-0.4c0.7-0.3,1.3-0.7,1.8-1.2
			c0.5-0.5,0.9-1.1,1.2-1.8c0.3-0.7,0.4-1.4,0.4-2.3c0-0.8-0.1-1.5-0.4-2.2c-0.3-0.7-0.7-1.3-1.2-1.8c-0.5-0.5-1.1-0.9-1.8-1.2
			c-0.7-0.3-1.4-0.5-2.2-0.5c-0.8,0-1.5,0.1-2.2,0.4c-0.7,0.3-1.3,0.7-1.8,1.1c-0.5,0.5-0.9,1.1-1.2,1.8
			C107.6,140.9,107.5,141.7,107.5,142.5z"/>
		<path id="XMLID_571_" d="M135.8,149.4h-1.7v-2.2h-0.1c-0.1,0.3-0.3,0.5-0.5,0.8c-0.2,0.3-0.5,0.6-0.9,0.8
			c-0.4,0.2-0.8,0.4-1.3,0.6c-0.5,0.2-1.1,0.2-1.7,0.2c-0.7,0-1.3-0.1-1.8-0.2c-0.5-0.1-1-0.3-1.4-0.5c-0.4-0.2-0.7-0.4-1-0.7
			c-0.3-0.2-0.5-0.5-0.6-0.6c-0.5-0.6-0.8-1.3-1-2.1c-0.2-0.8-0.2-1.6-0.2-2.3v-7.7h1.8v7.6c0,0.9,0.1,1.6,0.3,2.2
			c0.2,0.6,0.4,1.1,0.7,1.5c0.5,0.5,1,0.9,1.6,1.1c0.6,0.2,1.1,0.3,1.6,0.3c0.5,0,1-0.1,1.5-0.2c0.5-0.2,1-0.4,1.4-0.9
			c0.2-0.2,0.4-0.4,0.6-0.6c0.2-0.2,0.3-0.5,0.5-0.8c0.1-0.3,0.2-0.7,0.3-1.1c0.1-0.4,0.1-1,0.1-1.6v-7.3h1.8V149.4z"/>
		<path id="XMLID_573_" d="M139.9,145.3c0,0.7,0.1,1.2,0.3,1.6c0.2,0.4,0.4,0.7,0.7,0.8c0.3,0.2,0.5,0.3,0.8,0.4
			c0.3,0.1,0.5,0.1,0.6,0.1c0.8,0,1.5-0.2,1.9-0.7c0.4-0.4,0.7-1.1,0.7-1.8c0-0.5-0.1-0.9-0.3-1.2c-0.2-0.3-0.4-0.6-0.7-0.8
			c-0.3-0.2-0.6-0.4-0.9-0.5c-0.3-0.1-0.6-0.2-0.9-0.3c-0.4-0.1-0.7-0.3-1.2-0.4c-0.4-0.2-0.8-0.4-1.2-0.7c-0.4-0.3-0.7-0.7-0.9-1.1
			c-0.3-0.4-0.4-1-0.4-1.6c0-0.5,0.1-1,0.3-1.4c0.2-0.5,0.4-0.9,0.8-1.2c0.3-0.4,0.8-0.6,1.2-0.9c0.5-0.2,1.1-0.3,1.7-0.3
			c0.5,0,1,0.1,1.5,0.3c0.5,0.2,0.9,0.4,1.2,0.8c0.3,0.3,0.6,0.7,0.8,1.2c0.2,0.5,0.3,1,0.3,1.5v0.1h-1.8c0-0.4-0.1-0.8-0.3-1.1
			c-0.1-0.3-0.3-0.5-0.5-0.7c-0.2-0.2-0.4-0.3-0.6-0.4c-0.2-0.1-0.4-0.1-0.6-0.1c-0.4,0-0.7,0.1-0.9,0.2c-0.3,0.1-0.5,0.3-0.7,0.5
			c-0.2,0.2-0.3,0.4-0.4,0.7c-0.1,0.2-0.1,0.5-0.1,0.7c0,0.4,0.1,0.7,0.2,0.9c0.2,0.3,0.4,0.5,0.6,0.6c0.3,0.2,0.5,0.3,0.8,0.4
			c0.3,0.1,0.6,0.2,0.8,0.3c0.4,0.1,0.8,0.3,1.3,0.5c0.5,0.2,0.9,0.5,1.3,0.8c0.4,0.3,0.7,0.7,1,1.2c0.3,0.5,0.4,1.1,0.4,1.8v0.1
			c0,0.6-0.1,1.1-0.3,1.7c-0.2,0.5-0.4,1-0.8,1.3c-0.4,0.4-0.8,0.7-1.4,0.9c-0.5,0.2-1.2,0.3-1.9,0.3c-0.5,0-1-0.1-1.5-0.2
			c-0.5-0.2-1-0.4-1.4-0.8c-0.4-0.3-0.8-0.8-1-1.3c-0.3-0.5-0.4-1.2-0.4-2v-0.2H139.9z"/>
		<path id="XMLID_575_" d="M150.6,137.2h-2.9v-1.6h2.9v-4.9h1.8v4.9h3.3v1.6h-3.3v12.3h-1.8V137.2z"/>
		<path id="XMLID_577_" d="M157.6,135.6h1.8v2h0.1c0.2-0.5,0.5-0.9,0.7-1.2c0.3-0.3,0.6-0.5,1-0.7c0.3-0.2,0.7-0.3,1.1-0.3
			c0.4-0.1,0.8-0.1,1.1-0.1v1.9c-0.6,0.1-1.2,0.2-1.7,0.4c-0.5,0.2-0.9,0.5-1.3,1c-0.3,0.4-0.5,0.8-0.7,1.3c-0.2,0.5-0.3,1-0.3,1.6
			v8.1h-1.8V135.6z"/>
		<path id="XMLID_579_" d="M165.2,130.7h1.8v3.2h-1.8V130.7z M165.2,135.6h1.8v13.9h-1.8V135.6z"/>
		<path id="XMLID_582_" d="M85.5,161.1h1.9v10.8h0.1l8.6-10.8h2.4l-7.4,9.2l7.4,9.6h-2.4l-6.3-8.1l-2.4,3v5.2h-1.9V161.1z"/>
		<path id="XMLID_584_" d="M100.1,166h1.8v2h0.1c0.2-0.5,0.5-0.9,0.7-1.2c0.3-0.3,0.6-0.5,1-0.7c0.3-0.2,0.7-0.3,1.1-0.3
			c0.4-0.1,0.8-0.1,1.1-0.1v1.9c-0.6,0.1-1.2,0.2-1.7,0.4c-0.5,0.2-0.9,0.5-1.3,1c-0.3,0.4-0.5,0.8-0.7,1.3c-0.2,0.5-0.3,1-0.3,1.6
			v8.1h-1.8V166z"/>
		<path id="XMLID_586_" d="M108.8,173.6c0,0.7,0.2,1.3,0.5,1.9c0.3,0.6,0.7,1.1,1.2,1.6c0.5,0.5,1.1,0.8,1.7,1.1
			c0.6,0.3,1.3,0.4,2,0.4c0.6,0,1.2-0.1,1.8-0.3c0.5-0.2,1-0.4,1.4-0.7c0.4-0.3,0.8-0.6,1.1-1c0.3-0.4,0.5-0.8,0.7-1.2h1.9
			c-0.2,0.7-0.6,1.3-1,1.9c-0.4,0.6-1,1.1-1.6,1.5c-0.6,0.4-1.3,0.8-2,1c-0.7,0.2-1.5,0.4-2.3,0.4c-1,0-1.9-0.2-2.8-0.6
			c-0.9-0.4-1.6-0.9-2.3-1.5c-0.7-0.7-1.2-1.4-1.6-2.3c-0.4-0.9-0.6-1.8-0.6-2.9c0-1,0.2-1.9,0.6-2.8c0.4-0.9,0.9-1.6,1.5-2.3
			c0.7-0.7,1.4-1.2,2.3-1.6c0.9-0.4,1.8-0.6,2.8-0.6c0.8,0,1.5,0.1,2.1,0.3c0.7,0.2,1.2,0.5,1.8,0.8c0.5,0.3,1,0.7,1.4,1.1
			c0.4,0.4,0.7,0.8,1,1.3c0.4,0.7,0.7,1.3,0.9,2c0.2,0.7,0.2,1.3,0.2,1.9c0,0.1,0,0.2,0,0.3c0,0.1,0,0.2,0,0.3H108.8z M119.6,172
			c-0.1-0.8-0.4-1.5-0.8-2.1c-0.4-0.6-0.8-1.1-1.3-1.5c-0.5-0.4-1-0.7-1.6-0.9c-0.6-0.2-1.1-0.3-1.7-0.3c-0.5,0-1.1,0.1-1.7,0.3
			c-0.6,0.2-1.1,0.5-1.6,0.9c-0.5,0.4-1,0.9-1.3,1.5c-0.4,0.6-0.6,1.3-0.7,2.1H119.6z"/>
		<path id="XMLID_589_" d="M138.3,179.9h-1.8v-2.4h-0.1c-0.4,0.6-0.8,1-1.3,1.4c-0.5,0.4-1,0.6-1.4,0.8c-0.5,0.2-1,0.3-1.4,0.4
			c-0.5,0.1-0.9,0.1-1.2,0.1c-1.1,0-2.1-0.2-3-0.6c-0.9-0.4-1.7-0.9-2.4-1.6c-0.7-0.7-1.2-1.4-1.5-2.3c-0.4-0.9-0.5-1.8-0.5-2.8
			c0-0.9,0.2-1.8,0.5-2.7c0.4-0.9,0.9-1.6,1.5-2.3c0.6-0.7,1.4-1.2,2.3-1.6c0.9-0.4,1.9-0.6,3.1-0.6c0.4,0,0.8,0,1.3,0.1
			c0.5,0.1,1,0.2,1.4,0.4c0.5,0.2,1,0.5,1.4,0.9c0.5,0.4,0.9,0.8,1.3,1.4h0.1V166h1.8V179.9z M125.3,173c0,0.8,0.1,1.5,0.4,2.2
			c0.3,0.7,0.7,1.3,1.2,1.8c0.5,0.5,1.1,0.9,1.8,1.2c0.7,0.3,1.5,0.4,2.3,0.4c0.7,0,1.5-0.1,2.1-0.4c0.7-0.3,1.3-0.7,1.8-1.2
			c0.5-0.5,0.9-1.1,1.2-1.8c0.3-0.7,0.4-1.4,0.4-2.3c0-0.8-0.1-1.5-0.4-2.2c-0.3-0.7-0.7-1.3-1.2-1.8c-0.5-0.5-1.1-0.9-1.8-1.2
			c-0.7-0.3-1.4-0.5-2.2-0.5c-0.8,0-1.5,0.1-2.2,0.4c-0.7,0.3-1.3,0.7-1.8,1.1c-0.5,0.5-0.9,1.1-1.2,1.8
			C125.5,171.3,125.3,172.1,125.3,173z"/>
		<path id="XMLID_592_" d="M143.1,167.6h-2.9V166h2.9v-4.9h1.8v4.9h3.3v1.6h-3.3v12.3h-1.8V167.6z"/>
		<path id="XMLID_594_" d="M150.1,161.1h1.8v3.2h-1.8V161.1z M150.1,166h1.8v13.9h-1.8V166z"/>
		<path id="XMLID_597_" d="M156.1,167.6H154V166h2.2c0-0.3,0-0.7,0.1-1.1c0-0.4,0.1-0.8,0.2-1.1c0.1-0.4,0.3-0.8,0.5-1.1
			c0.2-0.4,0.5-0.7,0.9-1c0.4-0.3,0.9-0.5,1.5-0.7c0.6-0.2,1.3-0.3,2.2-0.3v1.6c-0.9,0-1.6,0.1-2,0.4c-0.5,0.2-0.8,0.5-1.1,0.9
			c-0.2,0.4-0.4,0.7-0.4,1.1c0,0.4-0.1,0.8-0.1,1.1v0.1h3.6v1.6h-3.6v12.3h-1.8V167.6z"/>
		<path id="XMLID_599_" d="M85.4,191.6h2.9l6.8,16l6.9-16h2.9v18.8H103v-16.7h-0.1l-7,16.7h-1.6l-7-16.7h-0.1v16.7h-1.9V191.6z"/>
		<path id="XMLID_601_" d="M122.6,210.3h-1.8v-2.4h-0.1c-0.4,0.6-0.8,1-1.3,1.4c-0.5,0.4-1,0.6-1.4,0.8c-0.5,0.2-1,0.3-1.4,0.4
			c-0.5,0.1-0.9,0.1-1.2,0.1c-1.1,0-2.1-0.2-3-0.6c-0.9-0.4-1.7-0.9-2.4-1.6c-0.7-0.7-1.2-1.4-1.5-2.3c-0.4-0.9-0.5-1.8-0.5-2.8
			c0-0.9,0.2-1.8,0.5-2.7c0.4-0.9,0.9-1.6,1.5-2.3c0.6-0.7,1.4-1.2,2.3-1.6c0.9-0.4,1.9-0.6,3.1-0.6c0.4,0,0.8,0,1.3,0.1
			c0.5,0.1,1,0.2,1.4,0.4c0.5,0.2,1,0.5,1.4,0.9c0.5,0.4,0.9,0.8,1.3,1.4h0.1v-2.4h1.8V210.3z M109.6,203.4c0,0.8,0.1,1.5,0.4,2.2
			c0.3,0.7,0.7,1.3,1.2,1.8c0.5,0.5,1.1,0.9,1.8,1.2c0.7,0.3,1.5,0.4,2.3,0.4c0.7,0,1.5-0.1,2.1-0.4c0.7-0.3,1.3-0.7,1.8-1.2
			c0.5-0.5,0.9-1.1,1.2-1.8c0.3-0.7,0.4-1.4,0.4-2.3c0-0.8-0.1-1.5-0.4-2.2c-0.3-0.7-0.7-1.3-1.2-1.8c-0.5-0.5-1.1-0.9-1.8-1.2
			c-0.7-0.3-1.4-0.5-2.2-0.5c-0.8,0-1.5,0.1-2.2,0.4c-0.7,0.3-1.3,0.7-1.8,1.1c-0.5,0.5-0.9,1.1-1.2,1.8
			C109.8,201.8,109.6,202.6,109.6,203.4z"/>
		<path id="XMLID_604_" d="M125.8,191.6h1.8v18.8h-1.8V191.6z"/>
		<path id="XMLID_606_" d="M145,210.3h-1.8v-2.4h-0.1c-0.4,0.6-0.8,1-1.3,1.4c-0.5,0.4-1,0.6-1.4,0.8c-0.5,0.2-1,0.3-1.4,0.4
			c-0.5,0.1-0.9,0.1-1.2,0.1c-1.1,0-2.1-0.2-3-0.6c-0.9-0.4-1.7-0.9-2.4-1.6c-0.7-0.7-1.2-1.4-1.5-2.3c-0.4-0.9-0.5-1.8-0.5-2.8
			c0-0.9,0.2-1.8,0.5-2.7c0.4-0.9,0.9-1.6,1.5-2.3c0.6-0.7,1.4-1.2,2.3-1.6c0.9-0.4,1.9-0.6,3.1-0.6c0.4,0,0.8,0,1.3,0.1
			c0.5,0.1,1,0.2,1.4,0.4c0.5,0.2,1,0.5,1.4,0.9c0.5,0.4,0.9,0.8,1.3,1.4h0.1v-2.4h1.8V210.3z M132,203.4c0,0.8,0.1,1.5,0.4,2.2
			c0.3,0.7,0.7,1.3,1.2,1.8c0.5,0.5,1.1,0.9,1.8,1.2c0.7,0.3,1.5,0.4,2.3,0.4c0.7,0,1.5-0.1,2.1-0.4c0.7-0.3,1.3-0.7,1.8-1.2
			c0.5-0.5,0.9-1.1,1.2-1.8c0.3-0.7,0.4-1.4,0.4-2.3c0-0.8-0.1-1.5-0.4-2.2c-0.3-0.7-0.7-1.3-1.2-1.8c-0.5-0.5-1.1-0.9-1.8-1.2
			c-0.7-0.3-1.4-0.5-2.2-0.5c-0.8,0-1.5,0.1-2.2,0.4c-0.7,0.3-1.3,0.7-1.8,1.1c-0.5,0.5-0.9,1.1-1.2,1.8
			C132.2,201.8,132,202.6,132,203.4z"/>
		<path id="XMLID_609_" d="M148.2,196.5h1.8v1.8h0.1c0.1-0.2,0.3-0.4,0.6-0.7c0.2-0.3,0.5-0.5,0.9-0.7c0.4-0.2,0.8-0.4,1.2-0.5
			c0.5-0.1,1-0.2,1.6-0.2c0.9,0,1.6,0.1,2.4,0.4c0.7,0.2,1.4,0.7,2,1.3c0.5,0.5,0.9,1.2,1.3,2c0.3,0.8,0.5,1.8,0.5,2.9v7.6h-1.8
			v-7.6c0-0.9-0.1-1.7-0.4-2.3c-0.2-0.6-0.6-1.1-1-1.5c-0.5-0.5-1-0.8-1.6-1c-0.6-0.2-1-0.2-1.4-0.2c-0.4,0-0.9,0.1-1.4,0.2
			c-0.6,0.2-1.1,0.5-1.6,1c-0.4,0.4-0.7,0.8-0.9,1.5c-0.2,0.6-0.4,1.4-0.4,2.2v7.8h-1.8V196.5z"/>
		<path id="XMLID_611_" d="M177.4,208.2c0,0.4,0,0.8,0,1.2c0,0.4-0.1,0.8-0.1,1.3c-0.1,0.4-0.2,0.9-0.4,1.3
			c-0.2,0.4-0.4,0.9-0.7,1.3c-0.4,0.6-0.9,1.1-1.5,1.4c-0.6,0.3-1.1,0.6-1.7,0.8c-0.5,0.2-1,0.3-1.5,0.3c-0.4,0-0.7,0.1-0.9,0.1
			c-0.5,0-1.1-0.1-1.8-0.2c-0.7-0.1-1.4-0.4-2.1-0.7c-0.7-0.4-1.3-0.9-1.9-1.5c-0.6-0.7-1-1.5-1.4-2.6h1.9c0.1,0.3,0.3,0.6,0.5,1
			c0.2,0.4,0.6,0.8,1,1.2c0.4,0.4,0.9,0.7,1.5,0.9c0.6,0.3,1.3,0.4,2.2,0.4c0.6,0,1.2-0.1,1.8-0.3c0.6-0.2,1.1-0.5,1.6-0.9
			c0.5-0.4,0.9-0.9,1.2-1.6c0.3-0.7,0.5-1.5,0.5-2.4v-1.2h-0.1c-0.3,0.5-0.6,0.9-1,1.3c-0.4,0.4-0.8,0.7-1.3,0.9
			c-0.5,0.2-1,0.4-1.5,0.5c-0.5,0.1-1,0.2-1.5,0.2c-0.9,0-1.8-0.2-2.7-0.5c-0.9-0.3-1.6-0.8-2.3-1.5c-0.7-0.6-1.2-1.4-1.6-2.3
			c-0.4-0.9-0.6-1.9-0.6-3c0-1.1,0.2-2.1,0.6-3c0.4-0.9,1-1.7,1.6-2.3c0.7-0.6,1.5-1.1,2.3-1.5c0.9-0.4,1.8-0.5,2.7-0.5
			c0.3,0,0.7,0,1.2,0.1c0.4,0.1,0.9,0.2,1.4,0.4c0.5,0.2,1,0.5,1.5,0.9c0.5,0.4,0.9,0.9,1.3,1.5h0.1v-2.5h1.8V208.2z M164.7,203.4
			c0,0.8,0.1,1.5,0.4,2.2c0.3,0.7,0.7,1.3,1.1,1.8c0.5,0.5,1.1,0.9,1.7,1.2c0.7,0.3,1.4,0.5,2.2,0.5c0.9,0,1.7-0.2,2.4-0.6
			c0.7-0.4,1.3-0.8,1.7-1.4c0.5-0.6,0.8-1.2,1-1.8c0.2-0.7,0.3-1.3,0.3-1.9c0-0.8-0.1-1.5-0.4-2.2c-0.3-0.7-0.7-1.3-1.2-1.8
			c-0.5-0.5-1.1-0.9-1.8-1.2c-0.7-0.3-1.4-0.5-2.2-0.5c-0.8,0-1.5,0.2-2.2,0.5c-0.7,0.3-1.2,0.7-1.7,1.2c-0.5,0.5-0.9,1.1-1.1,1.8
			C164.9,201.9,164.7,202.6,164.7,203.4z"/>
	</g>
</g>
</svg>
